SeanSlab_0.ufo
<glyph name="quotesingle" format="1">
  <advance width="214"/>
  <unicode hex="0027"/>
  <outline>
    <contour>
      <point x="119" y="534" type="line"/>
      <point x="122" y="722" type="line"/>
      <point x="92" y="722" type="line"/>
      <point x="95" y="534" type="line"/>
    </contour>
  </outline>
</glyph>
<glyph name="plus" format="1">
  <advance width="594"/>
  <unicode hex="002B"/>
  <outline>
    <contour>
      <point x="56" y="297" type="curve"/>
      <point x="538" y="297" type="line"/>
      <point x="538" y="321"/>
      <point x="538" y="297"/>
      <point x="538" y="321" type="curve"/>
      <point x="56" y="321" type="line"/>
      <point x="56" y="297"/>
      <point x="56" y="321"/>
    </contour>
    <contour>
      <point x="309" y="18" type="curve"/>
      <point x="309" y="588" type="line"/>
      <point x="285" y="588"/>
      <point x="309" y="588"/>
      <point x="285" y="588" type="curve"/>
      <point x="285" y="18" type="line"/>
      <point x="309" y="18"/>
      <point x="285" y="18"/>
    </contour>
  </outline>
</glyph>
<glyph name="period" format="1">
  <advance width="203"/>
  <unicode hex="002E"/>
  <outline>
    <contour>
      <point x="119" y="12" type="curve"/>
      <point x="119" y="23"/>
      <point x="112" y="29"/>
      <point x="101" y="29" type="curve"/>
      <point x="90" y="29"/>
      <point x="84" y="22"/>
      <point x="84" y="12" type="curve"/>
      <point x="119" y="12"/>
      <point x="84" y="12"/>
      <point x="119" y="12" type="curve"/>
      <point x="119" y="1"/>
      <point x="112" y="-5"/>
      <point x="101" y="-5" type="curve"/>
      <point x="90" y="-5"/>
      <point x="84" y="1"/>
      <point x="84" y="12" type="curve"/>
      <point x="119" y="12"/>
      <point x="84" y="12"/>
    </contour>
  </outline>
</glyph>
<glyph name="one" format="1">
  <advance width="341"/>
  <unicode hex="0031"/>
  <outline>
    <contour>
      <point x="200" y="0" type="curve"/>
      <point x="238" y="0"/>
      <point x="275" y="0"/>
      <point x="314" y="0" type="curve"/>
      <point x="314" y="22"/>
      <point x="314" y="0"/>
      <point x="314" y="22" type="curve"/>
      <point x="200" y="22"/>
      <point x="314" y="22"/>
      <point x="200" y="22" type="curve"/>
      <point x="200" y="0"/>
      <point x="200" y="22"/>
    </contour>
    <contour>
      <point x="200" y="22" type="curve"/>
      <point x="78" y="22"/>
      <point x="200" y="22"/>
      <point x="78" y="22" type="curve"/>
      <point x="78" y="0"/>
      <point x="78" y="22"/>
      <point x="78" y="0" type="curve"/>
      <point x="119" y="0"/>
      <point x="159" y="0"/>
      <point x="200" y="0" type="curve"/>
      <point x="200" y="22"/>
      <point x="200" y="0"/>
    </contour>
    <contour>
      <point x="63" y="541" type="curve"/>
      <point x="209" y="714"/>
      <point x="63" y="541"/>
      <point x="209" y="714" type="curve"/>
      <point x="187" y="722"/>
      <point x="209" y="714"/>
      <point x="187" y="722" type="curve"/>
      <point x="46" y="556"/>
      <point x="187" y="722"/>
      <point x="46" y="556" type="curve"/>
      <point x="63" y="541"/>
      <point x="46" y="556"/>
    </contour>
    <contour>
      <point x="211" y="0" type="curve"/>
      <point x="211" y="241"/>
      <point x="211" y="481"/>
      <point x="211" y="722" type="curve"/>
      <point x="187" y="722"/>
      <point x="211" y="722"/>
      <point x="187" y="722" type="curve"/>
      <point x="187" y="481"/>
      <point x="187" y="241"/>
      <point x="187" y="0" type="curve"/>
      <point x="211" y="0"/>
      <point x="187" y="0"/>
    </contour>
  </outline>
</glyph>
<glyph name="seven" format="1">
  <advance width="407"/>
  <unicode hex="0037"/>
  <outline>
    <contour>
      <point x="72" y="602" type="line"/>
      <point x="72" y="722" type="line"/>
      <point x="51" y="722" type="line"/>
      <point x="51" y="602" type="line"/>
    </contour>
    <contour>
      <point x="51" y="700" type="line"/>
      <point x="388" y="700" type="line"/>
      <point x="388" y="722" type="line"/>
      <point x="51" y="722" type="line"/>
    </contour>
    <contour>
      <point x="372" y="722" type="line"/>
      <point x="85" y="0" type="line"/>
      <point x="112" y="0" type="line"/>
      <point x="388" y="700" type="line"/>
    </contour>
  </outline>
</glyph>
<glyph name="colon" format="1">
  <advance width="209"/>
  <unicode hex="003A"/>
  <outline>
    <contour>
      <point x="122" y="409" type="curve"/>
      <point x="122" y="420"/>
      <point x="115" y="426"/>
      <point x="104" y="426" type="curve"/>
      <point x="93" y="426"/>
      <point x="87" y="419"/>
      <point x="87" y="409" type="curve"/>
      <point x="122" y="409"/>
      <point x="87" y="409"/>
      <point x="122" y="409" type="curve"/>
      <point x="122" y="398"/>
      <point x="115" y="392"/>
      <point x="104" y="392" type="curve"/>
      <point x="93" y="392"/>
      <point x="87" y="398"/>
      <point x="87" y="409" type="curve"/>
      <point x="122" y="409"/>
      <point x="87" y="409"/>
    </contour>
    <contour>
      <point x="122" y="13" type="curve"/>
      <point x="122" y="24"/>
      <point x="115" y="30"/>
      <point x="104" y="30" type="curve"/>
      <point x="93" y="30"/>
      <point x="87" y="23"/>
      <point x="87" y="13" type="curve"/>
      <point x="122" y="13"/>
      <point x="87" y="13"/>
      <point x="122" y="13" type="curve"/>
      <point x="122" y="2"/>
      <point x="115" y="-4"/>
      <point x="104" y="-4" type="curve"/>
      <point x="93" y="-4"/>
      <point x="87" y="2"/>
      <point x="87" y="13" type="curve"/>
      <point x="122" y="13"/>
      <point x="87" y="13"/>
    </contour>
  </outline>
</glyph>
<glyph name="question" format="1">
  <advance width="397"/>
  <unicode hex="003F"/>
  <outline>
    <contour>
      <point x="171" y="334" type="curve"/>
      <point x="171" y="297"/>
      <point x="171" y="258"/>
      <point x="171" y="221" type="curve"/>
      <point x="195" y="221"/>
      <point x="171" y="221"/>
      <point x="195" y="221" type="curve"/>
      <point x="195" y="258"/>
      <point x="195" y="297"/>
      <point x="195" y="334" type="curve"/>
      <point x="171" y="334"/>
      <point x="195" y="334"/>
    </contour>
    <contour>
      <point x="82" y="621" type="line"/>
      <point x="101" y="657"/>
      <point x="133" y="687"/>
      <point x="184" y="687" type="curve"/>
      <point x="271" y="687"/>
      <point x="307" y="612"/>
      <point x="307" y="519" type="curve"/>
      <point x="307" y="418"/>
      <point x="268" y="334"/>
      <point x="176" y="334" type="curve"/>
      <point x="176" y="311"/>
      <point x="176" y="334"/>
      <point x="176" y="311" type="curve"/>
      <point x="282" y="311"/>
      <point x="332" y="404"/>
      <point x="332" y="519" type="curve"/>
      <point x="332" y="624"/>
      <point x="284" y="710"/>
      <point x="186" y="710" type="curve"/>
      <point x="121" y="710"/>
      <point x="87" y="675"/>
      <point x="64" y="633" type="curve"/>
    </contour>
    <contour>
      <point x="200" y="12" type="curve"/>
      <point x="200" y="23"/>
      <point x="193" y="29"/>
      <point x="182" y="29" type="curve"/>
      <point x="171" y="29"/>
      <point x="165" y="22"/>
      <point x="165" y="12" type="curve"/>
      <point x="200" y="12"/>
      <point x="165" y="12"/>
      <point x="200" y="12" type="curve"/>
      <point x="200" y="1"/>
      <point x="193" y="-5"/>
      <point x="182" y="-5" type="curve"/>
      <point x="171" y="-5"/>
      <point x="165" y="1"/>
      <point x="165" y="12" type="curve"/>
      <point x="200" y="12"/>
      <point x="165" y="12"/>
    </contour>
  </outline>
</glyph>
<glyph name="E" format="1">
  <advance width="501"/>
  <unicode hex="0045"/>
  <outline>
    <contour>
      <point x="252" y="825" type="move" name="top"/>
    </contour>
    <contour>
      <point x="452" y="0" type="move" name="bottom"/>
    </contour>
    <contour>
      <point x="452" y="11" type="curve"/>
      <point x="452" y="131"/>
      <point x="452" y="1"/>
      <point x="452" y="121" type="curve"/>
      <point x="430" y="121"/>
      <point x="452" y="121"/>
      <point x="430" y="121" type="curve"/>
      <point x="430" y="1"/>
      <point x="430" y="131"/>
      <point x="430" y="11" type="curve"/>
      <point x="452" y="11"/>
      <point x="430" y="11"/>
    </contour>
    <contour>
      <point x="406" y="711" type="curve"/>
      <point x="406" y="591"/>
      <point x="406" y="721"/>
      <point x="406" y="601" type="curve"/>
      <point x="428" y="601"/>
      <point x="406" y="601"/>
      <point x="428" y="601" type="curve"/>
      <point x="428" y="721"/>
      <point x="428" y="591"/>
      <point x="428" y="711" type="curve"/>
      <point x="406" y="711"/>
      <point x="428" y="711"/>
    </contour>
    <contour>
      <point x="152" y="22" type="curve"/>
      <point x="20" y="22"/>
      <point x="172" y="22"/>
      <point x="40" y="22" type="curve"/>
      <point x="40" y="0"/>
      <point x="40" y="22"/>
      <point x="40" y="0" type="curve"/>
      <point x="84" y="0"/>
      <point x="108" y="0"/>
      <point x="152" y="0" type="curve"/>
      <point x="152" y="22"/>
      <point x="152" y="0"/>
    </contour>
    <contour>
      <point x="152" y="722" type="curve"/>
      <point x="108" y="722"/>
      <point x="84" y="722"/>
      <point x="40" y="722" type="curve"/>
      <point x="40" y="700"/>
      <point x="40" y="722"/>
      <point x="40" y="700" type="curve"/>
      <point x="172" y="700"/>
      <point x="20" y="700"/>
      <point x="152" y="700" type="curve"/>
      <point x="152" y="722"/>
      <point x="152" y="700"/>
    </contour>
    <contour>
      <point x="154" y="363" type="curve"/>
      <point x="231" y="363"/>
      <point x="307" y="363"/>
      <point x="384" y="363" type="curve"/>
      <point x="384" y="385"/>
      <point x="384" y="363"/>
      <point x="384" y="385" type="curve"/>
      <point x="307" y="385"/>
      <point x="231" y="385"/>
      <point x="154" y="385" type="curve"/>
      <point x="154" y="363"/>
      <point x="154" y="385"/>
    </contour>
    <contour>
      <point x="144" y="700" type="curve"/>
      <point x="239" y="700"/>
      <point x="333" y="700"/>
      <point x="428" y="700" type="curve"/>
      <point x="428" y="722"/>
      <point x="428" y="700"/>
      <point x="428" y="722" type="curve"/>
      <point x="333" y="722"/>
      <point x="239" y="722"/>
      <point x="144" y="722" type="curve"/>
      <point x="144" y="700"/>
      <point x="144" y="722"/>
    </contour>
    <contour>
      <point x="164" y="0" type="curve"/>
      <point x="164" y="722" type="line"/>
      <point x="140" y="722"/>
      <point x="164" y="722"/>
      <point x="140" y="722" type="curve"/>
      <point x="140" y="481"/>
      <point x="140" y="241"/>
      <point x="140" y="0" type="curve"/>
      <point x="164" y="0"/>
      <point x="140" y="0"/>
    </contour>
    <contour>
      <point x="144" y="0" type="curve"/>
      <point x="247" y="0"/>
      <point x="349" y="0"/>
      <point x="452" y="0" type="curve"/>
      <point x="452" y="22"/>
      <point x="452" y="0"/>
      <point x="452" y="22" type="curve"/>
      <point x="349" y="22"/>
      <point x="247" y="22"/>
      <point x="144" y="22" type="curve"/>
      <point x="144" y="0"/>
      <point x="144" y="22"/>
    </contour>
  </outline>
</glyph>
<glyph name="L" format="1">
  <advance width="487"/>
  <unicode hex="004C"/>
  <outline>
    <contour>
      <point x="153" y="825" type="move" name="top"/>
    </contour>
    <contour>
      <point x="262" y="-80" type="move" name="bottom"/>
    </contour>
    <contour>
      <point x="447" y="11" type="curve"/>
      <point x="447" y="131"/>
      <point x="447" y="1"/>
      <point x="447" y="121" type="curve"/>
      <point x="425" y="121"/>
      <point x="447" y="121"/>
      <point x="425" y="121" type="curve"/>
      <point x="425" y="1"/>
      <point x="425" y="131"/>
      <point x="425" y="11" type="curve"/>
      <point x="447" y="11"/>
      <point x="425" y="11"/>
    </contour>
    <contour>
      <point x="151" y="22" type="curve"/>
      <point x="19" y="22"/>
      <point x="171" y="22"/>
      <point x="39" y="22" type="curve"/>
      <point x="39" y="0"/>
      <point x="39" y="22"/>
      <point x="39" y="0" type="curve"/>
      <point x="83" y="0"/>
      <point x="107" y="0"/>
      <point x="151" y="0" type="curve"/>
      <point x="151" y="22"/>
      <point x="151" y="0"/>
    </contour>
    <contour>
      <point x="151" y="722" type="curve"/>
      <point x="107" y="722"/>
      <point x="83" y="722"/>
      <point x="39" y="722" type="curve"/>
      <point x="39" y="700"/>
      <point x="39" y="722"/>
      <point x="39" y="700" type="curve"/>
      <point x="171" y="700"/>
      <point x="19" y="700"/>
      <point x="151" y="700" type="curve"/>
      <point x="151" y="722"/>
      <point x="151" y="700"/>
    </contour>
    <contour>
      <point x="151" y="700" type="curve"/>
      <point x="283" y="700"/>
      <point x="131" y="700"/>
      <point x="263" y="700" type="curve"/>
      <point x="263" y="722"/>
      <point x="263" y="700"/>
      <point x="263" y="722" type="curve"/>
      <point x="219" y="722"/>
      <point x="195" y="722"/>
      <point x="151" y="722" type="curve"/>
      <point x="151" y="700"/>
      <point x="151" y="722"/>
    </contour>
    <contour>
      <point x="164" y="0" type="curve"/>
      <point x="164" y="241"/>
      <point x="164" y="481"/>
      <point x="164" y="722" type="curve"/>
      <point x="140" y="722"/>
      <point x="164" y="722"/>
      <point x="140" y="722" type="curve"/>
      <point x="140" y="481"/>
      <point x="140" y="241"/>
      <point x="140" y="0" type="curve"/>
      <point x="164" y="0"/>
      <point x="140" y="0"/>
    </contour>
    <contour>
      <point x="151" y="0" type="curve"/>
      <point x="250" y="0"/>
      <point x="348" y="0"/>
      <point x="447" y="0" type="curve"/>
      <point x="447" y="22"/>
      <point x="447" y="0"/>
      <point x="447" y="22" type="curve"/>
      <point x="348" y="22"/>
      <point x="250" y="22"/>
      <point x="151" y="22" type="curve"/>
      <point x="151" y="0"/>
      <point x="151" y="22"/>
    </contour>
  </outline>
</glyph>
<glyph name="W" format="1">
  <advance width="745"/>
  <unicode hex="0057"/>
  <outline>
    <contour>
      <point x="104" y="700" type="curve"/>
      <point x="226" y="700"/>
      <point x="95" y="700"/>
      <point x="217" y="700" type="curve"/>
      <point x="217" y="722"/>
      <point x="217" y="700"/>
      <point x="217" y="722" type="curve"/>
      <point x="176" y="722"/>
      <point x="144" y="722"/>
      <point x="104" y="722" type="curve"/>
      <point x="104" y="700"/>
      <point x="104" y="722"/>
    </contour>
    <contour>
      <point x="104" y="722" type="curve"/>
      <point x="64" y="722"/>
      <point x="32" y="722"/>
      <point x="-8" y="722" type="curve"/>
      <point x="-8" y="700"/>
      <point x="-8" y="722"/>
      <point x="-8" y="700" type="curve"/>
      <point x="113" y="700"/>
      <point x="-17" y="700"/>
      <point x="104" y="700" type="curve"/>
      <point x="104" y="722"/>
      <point x="104" y="700"/>
    </contour>
    <contour>
      <point x="620" y="722" type="curve"/>
      <point x="580" y="722"/>
      <point x="548" y="722"/>
      <point x="508" y="722" type="curve"/>
      <point x="508" y="700"/>
      <point x="508" y="722"/>
      <point x="508" y="700" type="curve"/>
      <point x="629" y="700"/>
      <point x="499" y="700"/>
      <point x="620" y="700" type="curve"/>
      <point x="620" y="722"/>
      <point x="620" y="700"/>
    </contour>
    <contour>
      <point x="620" y="700" type="curve"/>
      <point x="741" y="700"/>
      <point x="611" y="700"/>
      <point x="732" y="700" type="curve"/>
      <point x="732" y="722"/>
      <point x="732" y="700"/>
      <point x="732" y="722" type="curve"/>
      <point x="692" y="722"/>
      <point x="660" y="722"/>
      <point x="620" y="722" type="curve"/>
      <point x="620" y="700"/>
      <point x="620" y="722"/>
    </contour>
    <contour>
      <point x="234" y="0" type="curve"/>
      <point x="281" y="241"/>
      <point x="327" y="481"/>
      <point x="374" y="722" type="curve"/>
      <point x="351" y="722"/>
      <point x="375" y="722"/>
      <point x="352" y="722" type="curve"/>
      <point x="307" y="481"/>
      <point x="260" y="241"/>
      <point x="215" y="0" type="curve"/>
      <point x="233" y="0"/>
      <point x="216" y="0"/>
    </contour>
    <contour>
      <point x="358" y="722" type="curve"/>
      <point x="401" y="481"/>
      <point x="442" y="241"/>
      <point x="485" y="0" type="curve"/>
      <point x="503" y="0"/>
      <point x="486" y="0"/>
      <point x="504" y="0" type="curve"/>
      <point x="463" y="241"/>
      <point x="421" y="481"/>
      <point x="380" y="722" type="curve"/>
      <point x="357" y="722"/>
      <point x="381" y="722"/>
    </contour>
    <contour>
      <point x="83" y="722" type="curve"/>
      <point x="126" y="481"/>
      <point x="169" y="241"/>
      <point x="212" y="0" type="curve"/>
      <point x="230" y="0"/>
      <point x="213" y="0"/>
      <point x="231" y="0" type="curve"/>
      <point x="190" y="241"/>
      <point x="149" y="481"/>
      <point x="108" y="722" type="curve"/>
      <point x="83" y="722"/>
      <point x="108" y="722"/>
    </contour>
    <contour>
      <point x="616" y="722" type="curve"/>
      <point x="573" y="481"/>
      <point x="530" y="241"/>
      <point x="488" y="0" type="curve"/>
      <point x="506" y="0"/>
      <point x="489" y="0"/>
      <point x="507" y="0" type="curve"/>
      <point x="552" y="241"/>
      <point x="596" y="481"/>
      <point x="641" y="722" type="curve"/>
      <point x="616" y="722"/>
      <point x="641" y="722"/>
    </contour>
  </outline>
</glyph>
<glyph name="backslash" format="1">
  <advance width="382"/>
  <unicode hex="005C"/>
  <outline>
    <contour>
      <point x="341" y="-68" type="curve"/>
      <point x="250" y="236"/>
      <point x="158" y="540"/>
      <point x="67" y="844" type="curve"/>
      <point x="41" y="844"/>
      <point x="67" y="844"/>
      <point x="41" y="844" type="curve"/>
      <point x="133" y="540"/>
      <point x="224" y="236"/>
      <point x="316" y="-68" type="curve"/>
      <point x="341" y="-68"/>
      <point x="316" y="-68"/>
    </contour>
  </outline>
</glyph>
<glyph name="d" format="1">
  <advance width="490"/>
  <unicode hex="0064"/>
  <outline>
    <contour>
      <point x="370" y="800" type="curve"/>
      <point x="326" y="800"/>
      <point x="302" y="800"/>
      <point x="258" y="800" type="curve"/>
      <point x="258" y="778"/>
      <point x="258" y="800"/>
      <point x="258" y="778" type="curve"/>
      <point x="390" y="778"/>
      <point x="238" y="778"/>
      <point x="370" y="778" type="curve"/>
      <point x="370" y="800"/>
      <point x="370" y="778"/>
    </contour>
    <contour>
      <point x="371" y="0" type="curve"/>
      <point x="415" y="0"/>
      <point x="439" y="0"/>
      <point x="483" y="0" type="curve"/>
      <point x="483" y="22"/>
      <point x="483" y="0"/>
      <point x="483" y="22" type="curve"/>
      <point x="351" y="22"/>
      <point x="503" y="22"/>
      <point x="371" y="22" type="curve"/>
      <point x="371" y="0"/>
      <point x="371" y="22"/>
    </contour>
    <contour>
      <point x="378" y="438" type="curve"/>
      <point x="357" y="495"/>
      <point x="303" y="538"/>
      <point x="235" y="538" type="curve"/>
      <point x="106" y="538"/>
      <point x="61" y="410"/>
      <point x="61" y="264" type="curve"/>
      <point x="61" y="120"/>
      <point x="109" y="-5"/>
      <point x="237" y="-5" type="curve"/>
      <point x="310" y="-5"/>
      <point x="354" y="51"/>
      <point x="378" y="129" type="curve"/>
      <point x="363" y="144"/>
      <point x="378" y="129"/>
      <point x="363" y="144" type="curve"/>
      <point x="340" y="71"/>
      <point x="297" y="17"/>
      <point x="236" y="17" type="curve"/>
      <point x="125" y="17"/>
      <point x="85" y="134"/>
      <point x="85" y="265" type="curve"/>
      <point x="85" y="397"/>
      <point x="124" y="516"/>
      <point x="236" y="516" type="curve"/>
      <point x="291" y="516"/>
      <point x="343" y="477"/>
      <point x="363" y="422" type="curve"/>
      <point x="378" y="438"/>
      <point x="363" y="422"/>
    </contour>
    <contour>
      <point x="383" y="0" type="curve"/>
      <point x="383" y="267"/>
      <point x="383" y="533"/>
      <point x="383" y="800" type="curve"/>
      <point x="358" y="800"/>
      <point x="383" y="800"/>
      <point x="358" y="800" type="curve"/>
      <point x="358" y="533"/>
      <point x="358" y="267"/>
      <point x="358" y="0" type="curve"/>
      <point x="383" y="0"/>
      <point x="358" y="0"/>
    </contour>
  </outline>
</glyph>
<glyph name="w" format="1">
  <advance width="741"/>
  <unicode hex="0077"/>
  <outline>
    <contour>
      <point x="627" y="511" type="curve"/>
      <point x="748" y="511"/>
      <point x="618" y="511"/>
      <point x="739" y="511" type="curve"/>
      <point x="739" y="533"/>
      <point x="739" y="511"/>
      <point x="739" y="533" type="curve"/>
      <point x="699" y="533"/>
      <point x="667" y="533"/>
      <point x="627" y="533" type="curve"/>
      <point x="627" y="511"/>
      <point x="627" y="533"/>
    </contour>
    <contour>
      <point x="627" y="533" type="curve"/>
      <point x="587" y="533"/>
      <point x="575" y="533"/>
      <point x="535" y="533" type="curve"/>
      <point x="535" y="511"/>
      <point x="535" y="533"/>
      <point x="535" y="511" type="curve"/>
      <point x="654" y="511"/>
      <point x="508" y="511"/>
      <point x="627" y="511" type="curve"/>
      <point x="627" y="533"/>
      <point x="627" y="511"/>
    </contour>
    <contour>
      <point x="113" y="533" type="curve"/>
      <point x="73" y="533"/>
      <point x="41" y="533"/>
      <point x="1" y="533" type="curve"/>
      <point x="1" y="511"/>
      <point x="1" y="533"/>
      <point x="1" y="511" type="curve"/>
      <point x="122" y="511"/>
      <point x="-8" y="511"/>
      <point x="113" y="511" type="curve"/>
      <point x="113" y="533"/>
      <point x="113" y="511"/>
    </contour>
    <contour>
      <point x="113" y="511" type="curve"/>
      <point x="233" y="511"/>
      <point x="95" y="511"/>
      <point x="215" y="511" type="curve"/>
      <point x="215" y="533"/>
      <point x="215" y="511"/>
      <point x="215" y="533" type="curve"/>
      <point x="175" y="533"/>
      <point x="153" y="533"/>
      <point x="113" y="533" type="curve"/>
      <point x="113" y="511"/>
      <point x="113" y="533"/>
    </contour>
    <contour>
      <point x="243" y="0" type="curve"/>
      <point x="291" y="178"/>
      <point x="338" y="355"/>
      <point x="386" y="533" type="curve"/>
      <point x="359" y="533"/>
      <point x="386" y="533"/>
      <point x="359" y="533" type="curve"/>
      <point x="313" y="355"/>
      <point x="266" y="178"/>
      <point x="220" y="0" type="curve"/>
      <point x="243" y="0"/>
      <point x="220" y="0"/>
    </contour>
    <contour>
      <point x="623" y="533" type="curve"/>
      <point x="580" y="355"/>
      <point x="536" y="178"/>
      <point x="493" y="0" type="curve"/>
      <point x="516" y="0"/>
      <point x="493" y="0"/>
      <point x="516" y="0" type="curve"/>
      <point x="561" y="178"/>
      <point x="605" y="355"/>
      <point x="650" y="533" type="curve"/>
      <point x="623" y="533"/>
      <point x="650" y="533"/>
    </contour>
    <contour>
      <point x="364" y="533" type="curve"/>
      <point x="407" y="355"/>
      <point x="449" y="178"/>
      <point x="492" y="0" type="curve"/>
      <point x="515" y="0"/>
      <point x="492" y="0"/>
      <point x="515" y="0" type="curve"/>
      <point x="473" y="178"/>
      <point x="431" y="355"/>
      <point x="389" y="533" type="curve"/>
      <point x="364" y="533"/>
      <point x="389" y="533"/>
    </contour>
    <contour>
      <point x="91" y="533" type="curve"/>
      <point x="134" y="355"/>
      <point x="177" y="178"/>
      <point x="219" y="0" type="curve"/>
      <point x="242" y="0"/>
      <point x="219" y="0"/>
      <point x="242" y="0" type="curve"/>
      <point x="200" y="178"/>
      <point x="159" y="355"/>
      <point x="117" y="533" type="curve"/>
      <point x="91" y="533"/>
      <point x="117" y="533"/>
    </contour>
  </outline>
</glyph>
<glyph name="z" format="1">
  <advance width="408"/>
  <unicode hex="007A"/>
  <outline>
    <contour>
      <point x="203" y="671" type="move" name="top"/>
    </contour>
    <contour>
      <point x="67" y="511" type="curve"/>
      <point x="155" y="511"/>
      <point x="236" y="511"/>
      <point x="324" y="511" type="curve"/>
      <point x="322" y="514"/>
      <point x="320" y="516"/>
      <point x="317" y="518" type="curve"/>
      <point x="315" y="519"/>
      <point x="315" y="522"/>
      <point x="313" y="523" type="curve"/>
      <point x="310" y="519"/>
      <point x="307" y="516"/>
      <point x="305" y="512" type="curve"/>
      <point x="53" y="22" type="line"/>
      <point x="53" y="10"/>
      <point x="53" y="22"/>
      <point x="53" y="10" type="curve"/>
      <point x="53" y="0"/>
      <point x="53" y="10"/>
      <point x="53" y="0" type="curve"/>
      <point x="60" y="0"/>
      <point x="53" y="0"/>
      <point x="60" y="0" type="curve"/>
      <point x="359" y="0"/>
      <point x="257" y="0"/>
      <point x="357" y="0" type="curve"/>
      <point x="357" y="22"/>
      <point x="357" y="0"/>
      <point x="357" y="22" type="curve"/>
      <point x="257" y="22"/>
      <point x="160" y="22"/>
      <point x="60" y="22" type="curve"/>
      <point x="62" y="20"/>
      <point x="65" y="18"/>
      <point x="67" y="16" type="curve"/>
      <point x="69" y="15"/>
      <point x="70" y="11"/>
      <point x="72" y="10" type="curve"/>
      <point x="75" y="14"/>
      <point x="76" y="17"/>
      <point x="78" y="21" type="curve"/>
      <point x="331" y="511" type="line"/>
      <point x="331" y="523"/>
      <point x="331" y="511"/>
      <point x="331" y="523" type="curve"/>
      <point x="331" y="533"/>
      <point x="331" y="523"/>
      <point x="331" y="533" type="curve"/>
      <point x="324" y="533"/>
      <point x="331" y="533"/>
      <point x="324" y="533" type="curve"/>
      <point x="236" y="533"/>
      <point x="155" y="533"/>
      <point x="67" y="533" type="curve"/>
      <point x="67" y="511"/>
      <point x="67" y="533"/>
    </contour>
    <contour>
      <point x="67" y="522" type="curve"/>
      <point x="67" y="402"/>
      <point x="67" y="532"/>
      <point x="67" y="412" type="curve"/>
      <point x="88" y="412"/>
      <point x="67" y="412"/>
      <point x="88" y="412" type="curve"/>
      <point x="88" y="532"/>
      <point x="88" y="402"/>
      <point x="88" y="522" type="curve"/>
      <point x="67" y="522"/>
      <point x="88" y="522"/>
    </contour>
    <contour>
      <point x="357" y="11" type="curve"/>
      <point x="357" y="131"/>
      <point x="357" y="1"/>
      <point x="357" y="121" type="curve"/>
      <point x="335" y="121"/>
      <point x="357" y="121"/>
      <point x="335" y="121" type="curve"/>
      <point x="335" y="1"/>
      <point x="335" y="131"/>
      <point x="335" y="11" type="curve"/>
      <point x="357" y="11"/>
      <point x="335" y="11"/>
    </contour>
  </outline>
</glyph>
<glyph name="exclamdown" format="1">
  <advance width="215"/>
  <unicode hex="00A1"/>
  <outline>
    <contour>
      <point x="95" y="295" type="line"/>
      <point x="92" y="-198" type="line"/>
      <point x="123" y="-198" type="line"/>
      <point x="120" y="295" type="line"/>
    </contour>
    <contour>
      <point x="89" y="512" type="curve"/>
      <point x="89" y="501"/>
      <point x="96" y="495"/>
      <point x="107" y="495" type="curve"/>
      <point x="118" y="495"/>
      <point x="124" y="502"/>
      <point x="124" y="512" type="curve"/>
      <point x="89" y="512"/>
      <point x="124" y="512"/>
      <point x="89" y="512" type="curve"/>
      <point x="89" y="523"/>
      <point x="96" y="529"/>
      <point x="107" y="529" type="curve"/>
      <point x="118" y="529"/>
      <point x="124" y="523"/>
      <point x="124" y="512" type="curve"/>
      <point x="89" y="512"/>
      <point x="124" y="512"/>
    </contour>
  </outline>
</glyph>
<glyph name="dieresis" format="1">
  <advance width="324"/>
  <unicode hex="00A8"/>
  <outline>
    <contour>
      <point x="113" y="655" type="move" name="_top"/>
    </contour>
    <contour>
      <point x="88" y="669" type="curve"/>
      <point x="88" y="680"/>
      <point x="81" y="686"/>
      <point x="70" y="686" type="curve"/>
      <point x="59" y="686"/>
      <point x="53" y="679"/>
      <point x="53" y="669" type="curve"/>
      <point x="88" y="669"/>
      <point x="53" y="669"/>
      <point x="88" y="669" type="curve"/>
      <point x="88" y="658"/>
      <point x="81" y="652"/>
      <point x="70" y="652" type="curve"/>
      <point x="59" y="652"/>
      <point x="53" y="658"/>
      <point x="53" y="669" type="curve"/>
      <point x="88" y="669"/>
      <point x="53" y="669"/>
    </contour>
    <contour>
      <point x="172" y="669" type="curve"/>
      <point x="172" y="680"/>
      <point x="165" y="686"/>
      <point x="154" y="686" type="curve"/>
      <point x="143" y="686"/>
      <point x="137" y="679"/>
      <point x="137" y="669" type="curve"/>
      <point x="172" y="669"/>
      <point x="137" y="669"/>
      <point x="172" y="669" type="curve"/>
      <point x="172" y="658"/>
      <point x="165" y="652"/>
      <point x="154" y="652" type="curve"/>
      <point x="143" y="652"/>
      <point x="137" y="658"/>
      <point x="137" y="669" type="curve"/>
      <point x="172" y="669"/>
      <point x="137" y="669"/>
    </contour>
  </outline>
</glyph>
<glyph name="copyright" format="1">
  <advance width="578"/>
  <unicode hex="00A9"/>
  <outline>
    <contour>
      <point x="90" y="319" type="curve"/>
      <point x="90" y="483"/>
      <point x="146" y="625"/>
      <point x="292" y="625" type="curve"/>
      <point x="435" y="625"/>
      <point x="489" y="482"/>
      <point x="489" y="318" type="curve"/>
      <point x="489" y="158"/>
      <point x="437" y="17"/>
      <point x="296" y="17" type="curve"/>
      <point x="152" y="17"/>
      <point x="90" y="155"/>
      <point x="90" y="319" type="curve"/>
      <point x="65" y="319"/>
      <point x="90" y="319"/>
      <point x="65" y="319" type="curve"/>
      <point x="65" y="144"/>
      <point x="137" y="-5"/>
      <point x="295" y="-5" type="curve"/>
      <point x="450" y="-5"/>
      <point x="513" y="145"/>
      <point x="513" y="319" type="curve"/>
      <point x="513" y="495"/>
      <point x="448" y="646"/>
      <point x="292" y="646" type="curve"/>
      <point x="134" y="646"/>
      <point x="65" y="496"/>
      <point x="65" y="319" type="curve"/>
      <point x="90" y="319"/>
      <point x="65" y="319"/>
    </contour>
    <contour>
      <point x="356" y="452" type="curve"/>
      <point x="356" y="429"/>
      <point x="356" y="405"/>
      <point x="356" y="381" type="curve"/>
      <point x="378" y="381"/>
      <point x="356" y="381"/>
      <point x="378" y="381" type="curve"/>
      <point x="378" y="409"/>
      <point x="378" y="436"/>
      <point x="378" y="464" type="curve"/>
      <point x="356" y="452"/>
      <point x="378" y="464"/>
    </contour>
    <contour>
      <point x="378" y="464" type="curve"/>
      <point x="353" y="486"/>
      <point x="330" y="496"/>
      <point x="296" y="496" type="curve"/>
      <point x="209" y="496"/>
      <point x="177" y="417"/>
      <point x="177" y="319" type="curve"/>
      <point x="177" y="223"/>
      <point x="203" y="146"/>
      <point x="287" y="146" type="curve"/>
      <point x="329" y="146"/>
      <point x="358" y="160"/>
      <point x="386" y="193" type="curve"/>
      <point x="370" y="207"/>
      <point x="386" y="193"/>
      <point x="370" y="207" type="curve"/>
      <point x="348" y="182"/>
      <point x="324" y="168"/>
      <point x="288" y="168" type="curve"/>
      <point x="217" y="168"/>
      <point x="202" y="238"/>
      <point x="202" y="320" type="curve"/>
      <point x="202" y="404"/>
      <point x="221" y="474"/>
      <point x="295" y="474" type="curve"/>
      <point x="322" y="474"/>
      <point x="338" y="466"/>
      <point x="356" y="452" type="curve"/>
      <point x="378" y="464"/>
      <point x="356" y="452"/>
    </contour>
  </outline>
</glyph>
<glyph name="registered" format="1">
  <advance width="578"/>
  <unicode hex="00AE"/>
  <outline>
    <contour>
      <point x="90" y="319" type="curve"/>
      <point x="90" y="483"/>
      <point x="146" y="625"/>
      <point x="292" y="625" type="curve"/>
      <point x="435" y="625"/>
      <point x="489" y="482"/>
      <point x="489" y="318" type="curve"/>
      <point x="489" y="158"/>
      <point x="437" y="17"/>
      <point x="296" y="17" type="curve"/>
      <point x="152" y="17"/>
      <point x="90" y="155"/>
      <point x="90" y="319" type="curve"/>
      <point x="65" y="319"/>
      <point x="90" y="319"/>
      <point x="65" y="319" type="curve"/>
      <point x="65" y="144"/>
      <point x="137" y="-5"/>
      <point x="295" y="-5" type="curve"/>
      <point x="450" y="-5"/>
      <point x="513" y="145"/>
      <point x="513" y="319" type="curve"/>
      <point x="513" y="495"/>
      <point x="448" y="646"/>
      <point x="292" y="646" type="curve"/>
      <point x="134" y="646"/>
      <point x="65" y="496"/>
      <point x="65" y="319" type="curve"/>
      <point x="90" y="319"/>
      <point x="65" y="319"/>
    </contour>
    <contour>
      <point x="357" y="149" type="curve"/>
      <point x="375" y="149"/>
      <point x="392" y="149"/>
      <point x="410" y="149" type="curve"/>
      <point x="410" y="170"/>
      <point x="410" y="149"/>
      <point x="410" y="170" type="curve"/>
      <point x="398" y="170"/>
      <point x="387" y="170"/>
      <point x="375" y="170" type="curve"/>
      <point x="357" y="149"/>
      <point x="375" y="170"/>
    </contour>
    <contour>
      <point x="251" y="491" type="curve"/>
      <point x="228" y="491"/>
      <point x="206" y="491"/>
      <point x="183" y="491" type="curve"/>
      <point x="183" y="469"/>
      <point x="183" y="491"/>
      <point x="183" y="469" type="curve"/>
      <point x="198" y="469"/>
      <point x="212" y="469"/>
      <point x="226" y="469" type="curve"/>
      <point x="251" y="491"/>
      <point x="226" y="469"/>
    </contour>
    <contour>
      <point x="251" y="170" type="curve"/>
      <point x="228" y="170"/>
      <point x="206" y="170"/>
      <point x="183" y="170" type="curve"/>
      <point x="183" y="149"/>
      <point x="183" y="170"/>
      <point x="183" y="149" type="curve"/>
      <point x="198" y="149"/>
      <point x="212" y="149"/>
      <point x="226" y="149" type="curve"/>
      <point x="251" y="170"/>
      <point x="226" y="149"/>
    </contour>
    <contour>
      <point x="226" y="149" type="curve"/>
      <point x="247" y="149"/>
      <point x="266" y="149"/>
      <point x="287" y="149" type="curve"/>
      <point x="287" y="170"/>
      <point x="287" y="149"/>
      <point x="287" y="170" type="curve"/>
      <point x="274" y="170"/>
      <point x="263" y="170"/>
      <point x="251" y="170" type="curve"/>
      <point x="226" y="149"/>
      <point x="251" y="170"/>
    </contour>
    <contour>
      <point x="293" y="309" type="curve"/>
      <point x="314" y="255"/>
      <point x="336" y="202"/>
      <point x="357" y="149" type="curve"/>
      <point x="375" y="170"/>
      <point x="357" y="149"/>
      <point x="375" y="170" type="curve"/>
      <point x="319" y="310" type="line"/>
      <point x="293" y="309"/>
      <point x="319" y="310"/>
    </contour>
    <contour>
      <point x="251" y="170" type="curve"/>
      <point x="251" y="277"/>
      <point x="251" y="384"/>
      <point x="251" y="491" type="curve"/>
      <point x="226" y="469"/>
      <point x="251" y="491"/>
      <point x="226" y="469" type="curve"/>
      <point x="226" y="362"/>
      <point x="226" y="255"/>
      <point x="226" y="149" type="curve"/>
      <point x="251" y="170"/>
      <point x="226" y="149"/>
    </contour>
    <contour>
      <point x="240" y="295" type="curve"/>
      <point x="254" y="295"/>
      <point x="269" y="295"/>
      <point x="283" y="295" type="curve"/>
      <point x="339" y="295"/>
      <point x="368" y="331"/>
      <point x="368" y="392" type="curve"/>
      <point x="368" y="449"/>
      <point x="342" y="491"/>
      <point x="290" y="491" type="curve"/>
      <point x="277" y="491"/>
      <point x="264" y="491"/>
      <point x="251" y="491" type="curve"/>
      <point x="226" y="469"/>
      <point x="251" y="491"/>
      <point x="226" y="469" type="curve"/>
      <point x="246" y="469"/>
      <point x="266" y="469"/>
      <point x="286" y="469" type="curve"/>
      <point x="326" y="469"/>
      <point x="344" y="435"/>
      <point x="344" y="390" type="curve"/>
      <point x="344" y="345"/>
      <point x="326" y="317"/>
      <point x="287" y="317" type="curve"/>
      <point x="271" y="317"/>
      <point x="255" y="317"/>
      <point x="240" y="317" type="curve"/>
      <point x="240" y="295"/>
      <point x="240" y="317"/>
    </contour>
  </outline>
</glyph>
<glyph name="macron" format="1">
  <advance width="286"/>
  <unicode hex="00AF"/>
  <outline>
    <contour>
      <point x="102" y="659" type="move" name="_top"/>
    </contour>
    <contour>
      <point x="179" y="680" type="curve"/>
      <point x="127" y="680"/>
      <point x="74" y="680"/>
      <point x="22" y="680" type="curve"/>
      <point x="22" y="659"/>
      <point x="22" y="680"/>
      <point x="22" y="659" type="curve"/>
      <point x="74" y="659"/>
      <point x="127" y="659"/>
      <point x="179" y="659" type="curve"/>
      <point x="179" y="680"/>
      <point x="179" y="659"/>
    </contour>
  </outline>
</glyph>
<glyph name="degree" format="1">
  <advance width="379"/>
  <unicode hex="00B0"/>
  <outline>
    <contour>
      <point x="308" y="431" type="curve"/>
      <point x="308" y="543"/>
      <point x="287" y="638"/>
      <point x="190" y="638" type="curve"/>
      <point x="93" y="638"/>
      <point x="72" y="544"/>
      <point x="72" y="433" type="curve"/>
      <point x="95" y="433"/>
      <point x="72" y="433"/>
      <point x="95" y="433" type="curve"/>
      <point x="95" y="530"/>
      <point x="103" y="617"/>
      <point x="187" y="617" type="curve"/>
      <point x="272" y="617"/>
      <point x="285" y="530"/>
      <point x="285" y="431" type="curve"/>
      <point x="285" y="328"/>
      <point x="277" y="238"/>
      <point x="190" y="238" type="curve"/>
      <point x="102" y="238"/>
      <point x="95" y="330"/>
      <point x="95" y="433" type="curve"/>
      <point x="72" y="433"/>
      <point x="95" y="433"/>
      <point x="72" y="433" type="curve"/>
      <point x="72" y="316"/>
      <point x="89" y="217"/>
      <point x="189" y="217" type="curve"/>
      <point x="289" y="217"/>
      <point x="308" y="315"/>
    </contour>
  </outline>
</glyph>
<glyph name="paragraph" format="1">
  <advance width="533"/>
  <unicode hex="00B6"/>
  <outline>
    <contour>
      <point x="311" y="700" type="curve"/>
      <point x="443" y="700"/>
      <point x="311" y="700"/>
      <point x="443" y="700" type="curve"/>
      <point x="443" y="722"/>
      <point x="443" y="700"/>
      <point x="443" y="722" type="curve"/>
      <point x="399" y="722"/>
      <point x="355" y="722"/>
      <point x="311" y="722" type="curve"/>
      <point x="311" y="700"/>
      <point x="311" y="722"/>
    </contour>
    <contour>
      <point x="311" y="0" type="curve"/>
      <point x="355" y="0"/>
      <point x="399" y="0"/>
      <point x="443" y="0" type="curve"/>
      <point x="443" y="22"/>
      <point x="443" y="0"/>
      <point x="443" y="22" type="curve"/>
      <point x="311" y="22"/>
      <point x="443" y="22"/>
      <point x="311" y="22" type="curve"/>
      <point x="311" y="0"/>
      <point x="311" y="22"/>
    </contour>
    <contour>
      <point x="311" y="22" type="curve"/>
      <point x="209" y="22"/>
      <point x="311" y="22"/>
      <point x="209" y="22" type="curve"/>
      <point x="209" y="0"/>
      <point x="209" y="22"/>
      <point x="209" y="0" type="curve"/>
      <point x="311" y="0"/>
      <point x="277" y="0"/>
      <point x="311" y="0" type="curve"/>
      <point x="311" y="22"/>
      <point x="311" y="0"/>
    </contour>
    <contour>
      <point x="306" y="346" type="curve"/>
      <point x="272" y="320"/>
      <point x="245" y="303"/>
      <point x="202" y="303" type="curve"/>
      <point x="109" y="303"/>
      <point x="70" y="388"/>
      <point x="70" y="493" type="curve"/>
      <point x="70" y="608"/>
      <point x="117" y="700"/>
      <point x="222" y="700" type="curve"/>
      <point x="251" y="700"/>
      <point x="280" y="700"/>
      <point x="309" y="700" type="curve"/>
      <point x="309" y="722"/>
      <point x="309" y="700"/>
      <point x="309" y="722" type="curve"/>
      <point x="279" y="722"/>
      <point x="249" y="722"/>
      <point x="219" y="722" type="curve"/>
      <point x="102" y="722"/>
      <point x="46" y="621"/>
      <point x="46" y="494" type="curve"/>
      <point x="46" y="369"/>
      <point x="95" y="282"/>
      <point x="203" y="280" type="curve"/>
      <point x="246" y="280"/>
      <point x="282" y="300"/>
      <point x="314" y="325" type="curve"/>
      <point x="306" y="345"/>
      <point x="314" y="326"/>
    </contour>
    <contour>
      <point x="324" y="0" type="curve"/>
      <point x="324" y="241"/>
      <point x="324" y="481"/>
      <point x="324" y="722" type="curve"/>
      <point x="300" y="722"/>
      <point x="324" y="722"/>
      <point x="300" y="722" type="curve"/>
      <point x="300" y="481"/>
      <point x="300" y="241"/>
      <point x="300" y="0" type="curve"/>
      <point x="324" y="0"/>
      <point x="300" y="0"/>
    </contour>
    <contour>
      <point x="450" y="0" type="curve"/>
      <point x="450" y="241"/>
      <point x="450" y="481"/>
      <point x="450" y="722" type="curve"/>
      <point x="426" y="722"/>
      <point x="450" y="722"/>
      <point x="426" y="722" type="curve"/>
      <point x="426" y="481"/>
      <point x="426" y="241"/>
      <point x="426" y="0" type="curve"/>
      <point x="450" y="0"/>
      <point x="426" y="0"/>
    </contour>
  </outline>
</glyph>
<glyph name="onehalf" format="1">
  <advance width="693"/>
  <unicode hex="00BD"/>
  <outline>
    <contour>
      <point x="207" y="-93" type="line"/>
      <point x="506" y="757" type="line"/>
      <point x="478" y="757" type="line"/>
      <point x="180" y="-93" type="line"/>
    </contour>
    <contour>
      <point x="137" y="357" type="curve"/>
      <point x="170" y="357"/>
      <point x="174" y="357"/>
      <point x="207" y="357" type="curve"/>
      <point x="207" y="379"/>
      <point x="207" y="357"/>
      <point x="207" y="379" type="curve"/>
      <point x="182" y="379"/>
      <point x="186" y="379"/>
      <point x="161" y="379" type="curve"/>
      <point x="137" y="357"/>
      <point x="161" y="379"/>
    </contour>
    <contour>
      <point x="161" y="379" type="curve"/>
      <point x="128" y="379"/>
      <point x="123" y="379"/>
      <point x="89" y="379" type="curve"/>
      <point x="89" y="357"/>
      <point x="89" y="379"/>
      <point x="89" y="357" type="curve"/>
      <point x="115" y="357"/>
      <point x="111" y="357"/>
      <point x="137" y="357" type="curve"/>
      <point x="161" y="379"/>
      <point x="137" y="357"/>
    </contour>
    <contour>
      <point x="60" y="635" type="line"/>
      <point x="159" y="754" type="line"/>
      <point x="137" y="763" type="line"/>
      <point x="42" y="650" type="line"/>
    </contour>
    <contour>
      <point x="161" y="379" type="curve"/>
      <point x="161" y="763" type="line"/>
      <point x="137" y="763" type="line"/>
      <point x="137" y="357" type="line"/>
      <point x="161" y="379"/>
      <point x="137" y="357"/>
    </contour>
    <contour>
      <point x="650" y="-92" type="curve"/>
      <point x="650" y="-55"/>
      <point x="650" y="-49"/>
      <point x="650" y="-11" type="curve"/>
      <point x="628" y="-11"/>
      <point x="650" y="-11"/>
      <point x="628" y="-11" type="curve"/>
      <point x="628" y="-41"/>
      <point x="628" y="-40"/>
      <point x="628" y="-70" type="curve"/>
      <point x="650" y="-92"/>
      <point x="628" y="-70"/>
    </contour>
    <contour>
      <point x="424" y="-92" type="curve"/>
      <point x="500" y="-92"/>
      <point x="575" y="-92"/>
      <point x="650" y="-92" type="curve"/>
      <point x="628" y="-70"/>
      <point x="650" y="-92"/>
      <point x="628" y="-70" type="curve"/>
      <point x="560" y="-70"/>
      <point x="492" y="-70"/>
      <point x="424" y="-70" type="curve"/>
      <point x="424" y="-92"/>
      <point x="424" y="-70"/>
    </contour>
    <contour>
      <point x="466" y="226" type="curve"/>
      <point x="482" y="267"/>
      <point x="499" y="301"/>
      <point x="543" y="301" type="curve"/>
      <point x="593" y="301"/>
      <point x="614" y="258"/>
      <point x="614" y="203" type="curve"/>
      <point x="614" y="153"/>
      <point x="591" y="122"/>
      <point x="560" y="83" type="curve"/>
      <point x="515" y="32"/>
      <point x="469" y="-19"/>
      <point x="424" y="-70" type="curve"/>
      <point x="435" y="-92"/>
      <point x="424" y="-70"/>
      <point x="435" y="-92" type="curve"/>
      <point x="482" y="-39"/>
      <point x="529" y="13"/>
      <point x="576" y="66" type="curve"/>
      <point x="611" y="111"/>
      <point x="637" y="146"/>
      <point x="637" y="204" type="curve"/>
      <point x="637" y="272"/>
      <point x="606" y="323"/>
      <point x="544" y="323" type="curve"/>
      <point x="492" y="323"/>
      <point x="464" y="289"/>
      <point x="446" y="235" type="curve"/>
      <point x="466" y="226"/>
      <point x="446" y="235"/>
    </contour>
  </outline>
</glyph>
<glyph name="threequarters" format="1">
  <advance width="682"/>
  <unicode hex="00BE"/>
  <outline>
    <contour>
      <point x="216" y="-93" type="line"/>
      <point x="515" y="757" type="line"/>
      <point x="487" y="757" type="line"/>
      <point x="189" y="-93" type="line"/>
    </contour>
    <contour>
      <point x="70" y="695" type="curve"/>
      <point x="85" y="717"/>
      <point x="105" y="739"/>
      <point x="134" y="739" type="curve"/>
      <point x="182" y="739"/>
      <point x="207" y="704"/>
      <point x="207" y="653" type="curve"/>
      <point x="207" y="601"/>
      <point x="161" y="569"/>
      <point x="104" y="564" type="curve"/>
      <point x="104" y="545"/>
      <point x="104" y="564"/>
      <point x="104" y="545" type="curve"/>
      <point x="177" y="548"/>
      <point x="231" y="586"/>
      <point x="231" y="655" type="curve"/>
      <point x="231" y="718"/>
      <point x="198" y="760"/>
      <point x="137" y="760" type="curve"/>
      <point x="101" y="760"/>
      <point x="71" y="736"/>
      <point x="53" y="707" type="curve"/>
      <point x="70" y="695"/>
      <point x="53" y="707"/>
    </contour>
    <contour>
      <point x="49" y="374" type="curve"/>
      <point x="72" y="353"/>
      <point x="98" y="341"/>
      <point x="129" y="341" type="curve"/>
      <point x="199" y="337"/>
      <point x="243" y="382"/>
      <point x="242" y="453" type="curve"/>
      <point x="242" y="524"/>
      <point x="181" y="554"/>
      <point x="104" y="557" type="curve"/>
      <point x="104" y="541"/>
      <point x="104" y="557"/>
      <point x="104" y="541" type="curve"/>
      <point x="170" y="536"/>
      <point x="218" y="506"/>
      <point x="218" y="452" type="curve"/>
      <point x="217" y="397"/>
      <point x="186" y="360"/>
      <point x="132" y="362" type="curve"/>
      <point x="105" y="362"/>
      <point x="82" y="373"/>
      <point x="61" y="390" type="curve"/>
      <point x="49" y="374"/>
      <point x="61" y="390"/>
    </contour>
    <contour>
      <point x="659" y="45" type="line"/>
      <point x="379" y="45" type="line"/>
      <point x="379" y="25" type="line"/>
      <point x="659" y="25" type="line"/>
    </contour>
    <contour>
      <point x="393" y="25" type="line"/>
      <point x="571" y="331" type="line"/>
      <point x="548" y="340" type="line"/>
      <point x="379" y="45" type="line"/>
    </contour>
    <contour>
      <point x="571" y="-92" type="line"/>
      <point x="571" y="340" type="line"/>
      <point x="548" y="340" type="line"/>
      <point x="548" y="-92" type="line"/>
    </contour>
    <contour>
      <point x="559" y="-72" type="line"/>
      <point x="483" y="-72" type="line"/>
      <point x="483" y="-93" type="line"/>
      <point x="559" y="-93" type="line"/>
    </contour>
    <contour>
      <point x="559" y="-93" type="line"/>
      <point x="638" y="-93" type="line"/>
      <point x="638" y="-72" type="line"/>
      <point x="559" y="-72" type="line"/>
    </contour>
  </outline>
</glyph>
<glyph name="Acircumflex" format="1">
  <advance width="598"/>
  <unicode hex="00C2"/>
  <outline>
    <contour>
      <point x="89" y="22" type="curve"/>
      <point x="-43" y="22"/>
      <point x="109" y="22"/>
      <point x="-23" y="22" type="curve"/>
      <point x="-23" y="0"/>
      <point x="-23" y="22"/>
      <point x="-23" y="0" type="curve"/>
      <point x="21" y="0"/>
      <point x="45" y="0"/>
      <point x="89" y="0" type="curve"/>
      <point x="89" y="22"/>
      <point x="89" y="0"/>
    </contour>
    <contour>
      <point x="89" y="0" type="curve"/>
      <point x="135" y="0"/>
      <point x="69" y="0"/>
      <point x="206" y="0" type="curve"/>
      <point x="206" y="22"/>
      <point x="206" y="0"/>
      <point x="206" y="22" type="curve"/>
      <point x="69" y="22"/>
      <point x="226" y="22"/>
      <point x="89" y="22" type="curve"/>
      <point x="89" y="0"/>
      <point x="89" y="22"/>
    </contour>
    <contour>
      <point x="472" y="0" type="curve"/>
      <point x="516" y="0"/>
      <point x="540" y="0"/>
      <point x="584" y="0" type="curve"/>
      <point x="584" y="22"/>
      <point x="584" y="0"/>
      <point x="584" y="22" type="curve"/>
      <point x="452" y="22"/>
      <point x="604" y="22"/>
      <point x="472" y="22" type="curve"/>
      <point x="472" y="0"/>
      <point x="472" y="22"/>
    </contour>
    <contour>
      <point x="472" y="22" type="curve"/>
      <point x="334" y="22"/>
      <point x="492" y="22"/>
      <point x="354" y="22" type="curve"/>
      <point x="354" y="0"/>
      <point x="354" y="22"/>
      <point x="354" y="0" type="curve"/>
      <point x="400" y="0"/>
      <point x="426" y="0"/>
      <point x="472" y="0" type="curve"/>
      <point x="472" y="22"/>
      <point x="472" y="0"/>
    </contour>
    <contour>
      <point x="407" y="277" type="curve"/>
      <point x="326" y="277"/>
      <point x="246" y="277"/>
      <point x="165" y="277" type="curve"/>
      <point x="155" y="254"/>
      <point x="165" y="277"/>
      <point x="155" y="254" type="curve"/>
      <point x="242" y="254"/>
      <point x="328" y="254"/>
      <point x="415" y="254" type="curve"/>
      <point x="407" y="277"/>
      <point x="415" y="254"/>
    </contour>
    <contour>
      <point x="492" y="0" type="curve"/>
      <point x="429" y="241"/>
      <point x="366" y="481"/>
      <point x="303" y="722" type="curve"/>
      <point x="281" y="722"/>
      <point x="303" y="722"/>
      <point x="281" y="722" type="curve"/>
      <point x="343" y="481"/>
      <point x="405" y="241"/>
      <point x="467" y="0" type="curve"/>
      <point x="492" y="0"/>
      <point x="467" y="0"/>
    </contour>
    <contour>
      <point x="94" y="0" type="curve"/>
      <point x="163" y="241"/>
      <point x="232" y="481"/>
      <point x="301" y="722" type="curve"/>
      <point x="279" y="722"/>
      <point x="301" y="722"/>
      <point x="279" y="722" type="curve"/>
      <point x="209" y="481"/>
      <point x="138" y="241"/>
      <point x="67" y="0" type="curve"/>
      <point x="94" y="0"/>
      <point x="67" y="0"/>
    </contour>
    <contour>
      <point x="228" y="825" type="line"/>
      <point x="301" y="991" type="line"/>
      <point x="270" y="991" type="line"/>
      <point x="204" y="825" type="line"/>
    </contour>
    <contour>
      <point x="377" y="825" type="line"/>
      <point x="311" y="991" type="line"/>
      <point x="280" y="991" type="line"/>
      <point x="353" y="825" type="line"/>
    </contour>
  </outline>
</glyph>
<glyph name="AE" format="1">
  <advance width="736"/>
  <unicode hex="00C6"/>
  <outline>
    <contour>
      <point x="83" y="22" type="curve"/>
      <point x="-27" y="22"/>
      <point x="91" y="22"/>
      <point x="-19" y="22" type="curve"/>
      <point x="-19" y="0"/>
      <point x="-19" y="22"/>
      <point x="-19" y="0" type="curve"/>
      <point x="18" y="0"/>
      <point x="46" y="0"/>
      <point x="83" y="0" type="curve"/>
      <point x="83" y="22"/>
      <point x="83" y="0"/>
    </contour>
    <contour>
      <point x="83" y="0" type="curve"/>
      <point x="121" y="0"/>
      <point x="68" y="0"/>
      <point x="182" y="0" type="curve"/>
      <point x="182" y="22"/>
      <point x="182" y="0"/>
      <point x="182" y="22" type="curve"/>
      <point x="68" y="22"/>
      <point x="197" y="22"/>
      <point x="83" y="22" type="curve"/>
      <point x="83" y="0"/>
      <point x="83" y="22"/>
    </contour>
    <contour>
      <point x="384" y="277" type="curve"/>
      <point x="303" y="277"/>
      <point x="274" y="277"/>
      <point x="193" y="277" type="curve"/>
      <point x="183" y="254"/>
      <point x="193" y="277"/>
      <point x="183" y="254" type="curve"/>
      <point x="270" y="254"/>
      <point x="305" y="254"/>
      <point x="392" y="254" type="curve"/>
      <point x="384" y="277"/>
      <point x="392" y="254"/>
    </contour>
    <contour>
      <point x="88" y="0" type="curve"/>
      <point x="395" y="722" type="line"/>
      <point x="373" y="722"/>
      <point x="395" y="722"/>
      <point x="373" y="722" type="curve"/>
      <point x="61" y="0" type="line"/>
      <point x="88" y="0"/>
      <point x="61" y="0"/>
    </contour>
    <contour>
      <point x="687" y="11" type="curve"/>
      <point x="687" y="131"/>
      <point x="687" y="1"/>
      <point x="687" y="121" type="curve"/>
      <point x="665" y="121"/>
      <point x="687" y="121"/>
      <point x="665" y="121" type="curve"/>
      <point x="665" y="1"/>
      <point x="665" y="131"/>
      <point x="665" y="11" type="curve"/>
      <point x="687" y="11"/>
      <point x="665" y="11"/>
    </contour>
    <contour>
      <point x="641" y="711" type="curve"/>
      <point x="641" y="591"/>
      <point x="641" y="721"/>
      <point x="641" y="601" type="curve"/>
      <point x="663" y="601"/>
      <point x="641" y="601"/>
      <point x="663" y="601" type="curve"/>
      <point x="663" y="721"/>
      <point x="663" y="591"/>
      <point x="663" y="711" type="curve"/>
      <point x="641" y="711"/>
      <point x="663" y="711"/>
    </contour>
    <contour>
      <point x="387" y="22" type="curve"/>
      <point x="255" y="22"/>
      <point x="407" y="22"/>
      <point x="275" y="22" type="curve"/>
      <point x="275" y="0"/>
      <point x="275" y="22"/>
      <point x="275" y="0" type="curve"/>
      <point x="319" y="0"/>
      <point x="343" y="0"/>
      <point x="387" y="0" type="curve"/>
      <point x="387" y="22"/>
      <point x="387" y="0"/>
    </contour>
    <contour>
      <point x="387" y="722" type="curve"/>
      <point x="343" y="722"/>
      <point x="319" y="722"/>
      <point x="275" y="722" type="curve"/>
      <point x="275" y="700"/>
      <point x="275" y="722"/>
      <point x="275" y="700" type="curve"/>
      <point x="407" y="700"/>
      <point x="255" y="700"/>
      <point x="387" y="700" type="curve"/>
      <point x="387" y="722"/>
      <point x="387" y="700"/>
    </contour>
    <contour>
      <point x="389" y="363" type="curve"/>
      <point x="466" y="363"/>
      <point x="542" y="363"/>
      <point x="619" y="363" type="curve"/>
      <point x="619" y="385"/>
      <point x="619" y="363"/>
      <point x="619" y="385" type="curve"/>
      <point x="542" y="385"/>
      <point x="466" y="385"/>
      <point x="389" y="385" type="curve"/>
      <point x="389" y="363"/>
      <point x="389" y="385"/>
    </contour>
    <contour>
      <point x="379" y="700" type="curve"/>
      <point x="474" y="700"/>
      <point x="568" y="700"/>
      <point x="663" y="700" type="curve"/>
      <point x="663" y="722"/>
      <point x="663" y="700"/>
      <point x="663" y="722" type="curve"/>
      <point x="568" y="722"/>
      <point x="474" y="722"/>
      <point x="379" y="722" type="curve"/>
      <point x="379" y="700"/>
      <point x="379" y="722"/>
    </contour>
    <contour>
      <point x="399" y="0" type="curve"/>
      <point x="399" y="722" type="line"/>
      <point x="375" y="722"/>
      <point x="399" y="722"/>
      <point x="375" y="722" type="curve"/>
      <point x="375" y="481"/>
      <point x="375" y="241"/>
      <point x="375" y="0" type="curve"/>
      <point x="399" y="0"/>
      <point x="375" y="0"/>
    </contour>
    <contour>
      <point x="379" y="0" type="curve"/>
      <point x="482" y="0"/>
      <point x="584" y="0"/>
      <point x="687" y="0" type="curve"/>
      <point x="687" y="22"/>
      <point x="687" y="0"/>
      <point x="687" y="22" type="curve"/>
      <point x="584" y="22"/>
      <point x="482" y="22"/>
      <point x="379" y="22" type="curve"/>
      <point x="379" y="0"/>
      <point x="379" y="22"/>
    </contour>
  </outline>
</glyph>
<glyph name="Icircumflex" format="1">
  <advance width="299"/>
  <unicode hex="00CE"/>
  <outline>
    <contour>
      <point x="151" y="722" type="curve"/>
      <point x="107" y="722"/>
      <point x="83" y="722"/>
      <point x="39" y="722" type="curve"/>
      <point x="39" y="700"/>
      <point x="39" y="722"/>
      <point x="39" y="700" type="curve"/>
      <point x="171" y="700"/>
      <point x="19" y="700"/>
      <point x="151" y="700" type="curve"/>
      <point x="151" y="722"/>
      <point x="151" y="700"/>
    </contour>
    <contour>
      <point x="151" y="700" type="curve"/>
      <point x="284" y="700"/>
      <point x="131" y="700"/>
      <point x="264" y="700" type="curve"/>
      <point x="264" y="722"/>
      <point x="264" y="700"/>
      <point x="264" y="722" type="curve"/>
      <point x="219" y="722"/>
      <point x="195" y="722"/>
      <point x="151" y="722" type="curve"/>
      <point x="151" y="700"/>
      <point x="151" y="722"/>
    </contour>
    <contour>
      <point x="151" y="0" type="curve"/>
      <point x="195" y="0"/>
      <point x="219" y="0"/>
      <point x="264" y="0" type="curve"/>
      <point x="264" y="22"/>
      <point x="264" y="0"/>
      <point x="264" y="22" type="curve"/>
      <point x="131" y="22"/>
      <point x="284" y="22"/>
      <point x="151" y="22" type="curve"/>
      <point x="151" y="0"/>
      <point x="151" y="22"/>
    </contour>
    <contour>
      <point x="151" y="22" type="curve"/>
      <point x="19" y="22"/>
      <point x="171" y="22"/>
      <point x="39" y="22" type="curve"/>
      <point x="39" y="0"/>
      <point x="39" y="22"/>
      <point x="39" y="0" type="curve"/>
      <point x="83" y="0"/>
      <point x="107" y="0"/>
      <point x="151" y="0" type="curve"/>
      <point x="151" y="22"/>
      <point x="151" y="0"/>
    </contour>
    <contour>
      <point x="163" y="0" type="curve"/>
      <point x="163" y="241"/>
      <point x="163" y="481"/>
      <point x="163" y="722" type="curve"/>
      <point x="139" y="722"/>
      <point x="163" y="722"/>
      <point x="139" y="722" type="curve"/>
      <point x="139" y="481"/>
      <point x="139" y="241"/>
      <point x="139" y="0" type="curve"/>
      <point x="163" y="0"/>
      <point x="139" y="0"/>
    </contour>
    <contour>
      <point x="89" y="825" type="line"/>
      <point x="162" y="991" type="line"/>
      <point x="131" y="991" type="line"/>
      <point x="65" y="825" type="line"/>
    </contour>
    <contour>
      <point x="238" y="825" type="line"/>
      <point x="172" y="991" type="line"/>
      <point x="141" y="991" type="line"/>
      <point x="214" y="825" type="line"/>
    </contour>
  </outline>
</glyph>
<glyph name="Odieresis" format="1">
  <advance width="563"/>
  <unicode hex="00D6"/>
  <outline>
    <contour>
      <point x="92" y="360" type="curve"/>
      <point x="92" y="543"/>
      <point x="122" y="704"/>
      <point x="280" y="704" type="curve"/>
      <point x="438" y="704"/>
      <point x="472" y="545"/>
      <point x="472" y="363" type="curve"/>
      <point x="472" y="183"/>
      <point x="441" y="18"/>
      <point x="283" y="18" type="curve"/>
      <point x="124" y="18"/>
      <point x="92" y="177"/>
      <point x="92" y="360" type="curve"/>
      <point x="67" y="360"/>
      <point x="92" y="360"/>
      <point x="67" y="360" type="curve"/>
      <point x="67" y="162"/>
      <point x="110" y="-5"/>
      <point x="282" y="-5" type="curve"/>
      <point x="454" y="-5"/>
      <point x="496" y="164"/>
      <point x="496" y="363" type="curve"/>
      <point x="496" y="560"/>
      <point x="454" y="727"/>
      <point x="282" y="727" type="curve"/>
      <point x="109" y="727"/>
      <point x="67" y="558"/>
      <point x="67" y="360" type="curve"/>
      <point x="92" y="360"/>
      <point x="67" y="360"/>
    </contour>
    <contour>
      <point x="256" y="839" type="curve"/>
      <point x="256" y="850"/>
      <point x="249" y="856"/>
      <point x="238" y="856" type="curve"/>
      <point x="227" y="856"/>
      <point x="221" y="849"/>
      <point x="221" y="839" type="curve"/>
      <point x="256" y="839"/>
      <point x="221" y="839"/>
      <point x="256" y="839" type="curve"/>
      <point x="256" y="828"/>
      <point x="249" y="822"/>
      <point x="238" y="822" type="curve"/>
      <point x="227" y="822"/>
      <point x="221" y="828"/>
      <point x="221" y="839" type="curve"/>
      <point x="256" y="839"/>
      <point x="221" y="839"/>
    </contour>
    <contour>
      <point x="340" y="839" type="curve"/>
      <point x="340" y="850"/>
      <point x="333" y="856"/>
      <point x="322" y="856" type="curve"/>
      <point x="311" y="856"/>
      <point x="305" y="849"/>
      <point x="305" y="839" type="curve"/>
      <point x="340" y="839"/>
      <point x="305" y="839"/>
      <point x="340" y="839" type="curve"/>
      <point x="340" y="828"/>
      <point x="333" y="822"/>
      <point x="322" y="822" type="curve"/>
      <point x="311" y="822"/>
      <point x="305" y="828"/>
      <point x="305" y="839" type="curve"/>
      <point x="340" y="839"/>
      <point x="305" y="839"/>
    </contour>
  </outline>
</glyph>
<glyph name="ocircumflex" format="1">
  <advance width="454"/>
  <unicode hex="00F4"/>
  <outline>
    <contour>
      <point x="88" y="268" type="curve"/>
      <point x="88" y="406"/>
      <point x="114" y="517"/>
      <point x="225" y="517" type="curve"/>
      <point x="341" y="517"/>
      <point x="366" y="404"/>
      <point x="366" y="266" type="curve"/>
      <point x="366" y="129"/>
      <point x="340" y="17"/>
      <point x="228" y="17" type="curve"/>
      <point x="108" y="17"/>
      <point x="88" y="131"/>
      <point x="88" y="268" type="curve"/>
      <point x="64" y="268"/>
      <point x="88" y="268"/>
      <point x="64" y="268" type="curve"/>
      <point x="64" y="117"/>
      <point x="95" y="-5"/>
      <point x="227" y="-5" type="curve"/>
      <point x="358" y="-5"/>
      <point x="390" y="115"/>
      <point x="390" y="266" type="curve"/>
      <point x="390" y="417"/>
      <point x="358" y="538"/>
      <point x="226" y="538" type="curve"/>
      <point x="96" y="538"/>
      <point x="64" y="417"/>
      <point x="64" y="268" type="curve"/>
      <point x="88" y="268"/>
      <point x="64" y="268"/>
    </contour>
    <contour>
      <point x="161" y="671" type="line"/>
      <point x="234" y="837" type="line"/>
      <point x="203" y="837" type="line"/>
      <point x="137" y="671" type="line"/>
    </contour>
    <contour>
      <point x="310" y="671" type="line"/>
      <point x="244" y="837" type="line"/>
      <point x="213" y="837" type="line"/>
      <point x="286" y="671" type="line"/>
    </contour>
  </outline>
</glyph>
<glyph name="Abreve" format="1">
  <advance width="598"/>
  <unicode hex="0102"/>
  <outline>
    <contour>
      <point x="89" y="22" type="curve"/>
      <point x="-43" y="22"/>
      <point x="109" y="22"/>
      <point x="-23" y="22" type="curve"/>
      <point x="-23" y="0"/>
      <point x="-23" y="22"/>
      <point x="-23" y="0" type="curve"/>
      <point x="21" y="0"/>
      <point x="45" y="0"/>
      <point x="89" y="0" type="curve"/>
      <point x="89" y="22"/>
      <point x="89" y="0"/>
    </contour>
    <contour>
      <point x="89" y="0" type="curve"/>
      <point x="135" y="0"/>
      <point x="69" y="0"/>
      <point x="206" y="0" type="curve"/>
      <point x="206" y="22"/>
      <point x="206" y="0"/>
      <point x="206" y="22" type="curve"/>
      <point x="69" y="22"/>
      <point x="226" y="22"/>
      <point x="89" y="22" type="curve"/>
      <point x="89" y="0"/>
      <point x="89" y="22"/>
    </contour>
    <contour>
      <point x="472" y="0" type="curve"/>
      <point x="516" y="0"/>
      <point x="540" y="0"/>
      <point x="584" y="0" type="curve"/>
      <point x="584" y="22"/>
      <point x="584" y="0"/>
      <point x="584" y="22" type="curve"/>
      <point x="452" y="22"/>
      <point x="604" y="22"/>
      <point x="472" y="22" type="curve"/>
      <point x="472" y="0"/>
      <point x="472" y="22"/>
    </contour>
    <contour>
      <point x="472" y="22" type="curve"/>
      <point x="334" y="22"/>
      <point x="492" y="22"/>
      <point x="354" y="22" type="curve"/>
      <point x="354" y="0"/>
      <point x="354" y="22"/>
      <point x="354" y="0" type="curve"/>
      <point x="400" y="0"/>
      <point x="426" y="0"/>
      <point x="472" y="0" type="curve"/>
      <point x="472" y="22"/>
      <point x="472" y="0"/>
    </contour>
    <contour>
      <point x="407" y="277" type="curve"/>
      <point x="326" y="277"/>
      <point x="246" y="277"/>
      <point x="165" y="277" type="curve"/>
      <point x="155" y="254"/>
      <point x="165" y="277"/>
      <point x="155" y="254" type="curve"/>
      <point x="242" y="254"/>
      <point x="328" y="254"/>
      <point x="415" y="254" type="curve"/>
      <point x="407" y="277"/>
      <point x="415" y="254"/>
    </contour>
    <contour>
      <point x="492" y="0" type="curve"/>
      <point x="429" y="241"/>
      <point x="366" y="481"/>
      <point x="303" y="722" type="curve"/>
      <point x="281" y="722"/>
      <point x="303" y="722"/>
      <point x="281" y="722" type="curve"/>
      <point x="343" y="481"/>
      <point x="405" y="241"/>
      <point x="467" y="0" type="curve"/>
      <point x="492" y="0"/>
      <point x="467" y="0"/>
    </contour>
    <contour>
      <point x="94" y="0" type="curve"/>
      <point x="163" y="241"/>
      <point x="232" y="481"/>
      <point x="301" y="722" type="curve"/>
      <point x="279" y="722"/>
      <point x="301" y="722"/>
      <point x="279" y="722" type="curve"/>
      <point x="209" y="481"/>
      <point x="138" y="241"/>
      <point x="67" y="0" type="curve"/>
      <point x="94" y="0"/>
      <point x="67" y="0"/>
    </contour>
    <contour>
      <point x="370" y="948" type="curve"/>
      <point x="370" y="890"/>
      <point x="347" y="846"/>
      <point x="293" y="846" type="curve"/>
      <point x="241" y="846"/>
      <point x="220" y="891"/>
      <point x="220" y="949" type="curve"/>
      <point x="196" y="949"/>
      <point x="220" y="949"/>
      <point x="196" y="949" type="curve"/>
      <point x="196" y="877"/>
      <point x="225" y="825"/>
      <point x="291" y="825" type="curve"/>
      <point x="360" y="825"/>
      <point x="393" y="875"/>
      <point x="393" y="948" type="curve"/>
      <point x="370" y="948"/>
      <point x="393" y="948"/>
    </contour>
  </outline>
</glyph>
<glyph name="Dcroat" format="1">
  <advance width="580"/>
  <unicode hex="0110"/>
  <outline>
    <contour>
      <point x="153" y="22" type="curve"/>
      <point x="21" y="22"/>
      <point x="173" y="22"/>
      <point x="41" y="22" type="curve"/>
      <point x="41" y="0"/>
      <point x="41" y="22"/>
      <point x="41" y="0" type="curve"/>
      <point x="85" y="0"/>
      <point x="109" y="0"/>
      <point x="153" y="0" type="curve"/>
      <point x="153" y="22"/>
      <point x="153" y="0"/>
    </contour>
    <contour>
      <point x="153" y="722" type="curve"/>
      <point x="109" y="722"/>
      <point x="85" y="722"/>
      <point x="41" y="722" type="curve"/>
      <point x="41" y="700"/>
      <point x="41" y="722"/>
      <point x="41" y="700" type="curve"/>
      <point x="173" y="700"/>
      <point x="21" y="700"/>
      <point x="153" y="700" type="curve"/>
      <point x="153" y="722"/>
      <point x="153" y="700"/>
    </contour>
    <contour>
      <point x="140" y="722" type="curve"/>
      <point x="140" y="481"/>
      <point x="140" y="241"/>
      <point x="140" y="0" type="curve"/>
      <point x="164" y="0"/>
      <point x="140" y="0"/>
      <point x="164" y="0" type="curve"/>
      <point x="164" y="241"/>
      <point x="164" y="481"/>
      <point x="164" y="722" type="curve"/>
      <point x="140" y="722"/>
      <point x="164" y="722"/>
    </contour>
    <contour>
      <point x="153" y="0" type="curve"/>
      <point x="198" y="0"/>
      <point x="226" y="0"/>
      <point x="271" y="0" type="curve"/>
      <point x="453" y="0"/>
      <point x="517" y="153"/>
      <point x="517" y="356" type="curve"/>
      <point x="517" y="565"/>
      <point x="449" y="722"/>
      <point x="262" y="722" type="curve"/>
      <point x="221" y="722"/>
      <point x="194" y="722"/>
      <point x="153" y="722" type="curve"/>
      <point x="153" y="714"/>
      <point x="153" y="708"/>
      <point x="153" y="700" type="curve"/>
      <point x="194" y="700"/>
      <point x="220" y="700"/>
      <point x="261" y="700" type="curve"/>
      <point x="435" y="700"/>
      <point x="493" y="551"/>
      <point x="493" y="355" type="curve"/>
      <point x="493" y="167"/>
      <point x="440" y="22"/>
      <point x="273" y="22" type="curve"/>
      <point x="228" y="22"/>
      <point x="198" y="22"/>
      <point x="153" y="22" type="curve"/>
      <point x="153" y="14"/>
      <point x="153" y="8"/>
    </contour>
    <contour>
      <point x="64" y="404" type="curve"/>
      <point x="133" y="404"/>
      <point x="202" y="404"/>
      <point x="270" y="404" type="curve"/>
      <point x="270" y="428"/>
      <point x="270" y="404"/>
      <point x="270" y="428" type="curve"/>
      <point x="202" y="428"/>
      <point x="133" y="428"/>
      <point x="64" y="428" type="curve"/>
      <point x="64" y="404"/>
      <point x="64" y="428"/>
    </contour>
  </outline>
</glyph>
<glyph name="Edotaccent" format="1">
  <advance width="501"/>
  <unicode hex="0116"/>
  <outline>
    <contour>
      <point x="452" y="11" type="curve"/>
      <point x="452" y="131"/>
      <point x="452" y="1"/>
      <point x="452" y="121" type="curve"/>
      <point x="430" y="121"/>
      <point x="452" y="121"/>
      <point x="430" y="121" type="curve"/>
      <point x="430" y="1"/>
      <point x="430" y="131"/>
      <point x="430" y="11" type="curve"/>
      <point x="452" y="11"/>
      <point x="430" y="11"/>
    </contour>
    <contour>
      <point x="406" y="711" type="curve"/>
      <point x="406" y="591"/>
      <point x="406" y="721"/>
      <point x="406" y="601" type="curve"/>
      <point x="428" y="601"/>
      <point x="406" y="601"/>
      <point x="428" y="601" type="curve"/>
      <point x="428" y="721"/>
      <point x="428" y="591"/>
      <point x="428" y="711" type="curve"/>
      <point x="406" y="711"/>
      <point x="428" y="711"/>
    </contour>
    <contour>
      <point x="152" y="22" type="curve"/>
      <point x="20" y="22"/>
      <point x="172" y="22"/>
      <point x="40" y="22" type="curve"/>
      <point x="40" y="0"/>
      <point x="40" y="22"/>
      <point x="40" y="0" type="curve"/>
      <point x="84" y="0"/>
      <point x="108" y="0"/>
      <point x="152" y="0" type="curve"/>
      <point x="152" y="22"/>
      <point x="152" y="0"/>
    </contour>
    <contour>
      <point x="152" y="722" type="curve"/>
      <point x="108" y="722"/>
      <point x="84" y="722"/>
      <point x="40" y="722" type="curve"/>
      <point x="40" y="700"/>
      <point x="40" y="722"/>
      <point x="40" y="700" type="curve"/>
      <point x="172" y="700"/>
      <point x="20" y="700"/>
      <point x="152" y="700" type="curve"/>
      <point x="152" y="722"/>
      <point x="152" y="700"/>
    </contour>
    <contour>
      <point x="154" y="363" type="curve"/>
      <point x="231" y="363"/>
      <point x="307" y="363"/>
      <point x="384" y="363" type="curve"/>
      <point x="384" y="385"/>
      <point x="384" y="363"/>
      <point x="384" y="385" type="curve"/>
      <point x="307" y="385"/>
      <point x="231" y="385"/>
      <point x="154" y="385" type="curve"/>
      <point x="154" y="363"/>
      <point x="154" y="385"/>
    </contour>
    <contour>
      <point x="144" y="700" type="curve"/>
      <point x="239" y="700"/>
      <point x="333" y="700"/>
      <point x="428" y="700" type="curve"/>
      <point x="428" y="722"/>
      <point x="428" y="700"/>
      <point x="428" y="722" type="curve"/>
      <point x="333" y="722"/>
      <point x="239" y="722"/>
      <point x="144" y="722" type="curve"/>
      <point x="144" y="700"/>
      <point x="144" y="722"/>
    </contour>
    <contour>
      <point x="164" y="0" type="curve"/>
      <point x="164" y="722" type="line"/>
      <point x="140" y="722"/>
      <point x="164" y="722"/>
      <point x="140" y="722" type="curve"/>
      <point x="140" y="481"/>
      <point x="140" y="241"/>
      <point x="140" y="0" type="curve"/>
      <point x="164" y="0"/>
      <point x="140" y="0"/>
    </contour>
    <contour>
      <point x="144" y="0" type="curve"/>
      <point x="247" y="0"/>
      <point x="349" y="0"/>
      <point x="452" y="0" type="curve"/>
      <point x="452" y="22"/>
      <point x="452" y="0"/>
      <point x="452" y="22" type="curve"/>
      <point x="349" y="22"/>
      <point x="247" y="22"/>
      <point x="144" y="22" type="curve"/>
      <point x="144" y="0"/>
      <point x="144" y="22"/>
    </contour>
    <contour>
      <point x="269" y="839" type="curve"/>
      <point x="269" y="850"/>
      <point x="262" y="856"/>
      <point x="251" y="856" type="curve"/>
      <point x="240" y="856"/>
      <point x="234" y="849"/>
      <point x="234" y="839" type="curve"/>
      <point x="269" y="839"/>
      <point x="234" y="839"/>
      <point x="269" y="839" type="curve"/>
      <point x="269" y="828"/>
      <point x="262" y="822"/>
      <point x="251" y="822" type="curve"/>
      <point x="240" y="822"/>
      <point x="234" y="828"/>
      <point x="234" y="839" type="curve"/>
      <point x="269" y="839"/>
      <point x="234" y="839"/>
    </contour>
  </outline>
</glyph>
<glyph name="gbreve" format="1">
  <advance width="408"/>
  <unicode hex="011F"/>
  <outline>
    <contour>
      <point x="282" y="500" type="curve"/>
      <point x="387" y="581" type="line"/>
      <point x="373" y="600"/>
      <point x="387" y="581"/>
      <point x="373" y="600" type="curve"/>
      <point x="269" y="517" type="line"/>
      <point x="282" y="500"/>
      <point x="269" y="517"/>
    </contour>
    <contour>
      <point x="99" y="358" type="curve"/>
      <point x="99" y="442"/>
      <point x="133" y="517"/>
      <point x="210" y="517" type="curve"/>
      <point x="287" y="517"/>
      <point x="318" y="446"/>
      <point x="318" y="361" type="curve"/>
      <point x="318" y="281"/>
      <point x="285" y="210"/>
      <point x="209" y="210" type="curve"/>
      <point x="135" y="210"/>
      <point x="99" y="277"/>
      <point x="99" y="358" type="curve"/>
      <point x="75" y="357"/>
      <point x="99" y="358"/>
      <point x="75" y="357" type="curve"/>
      <point x="75" y="263"/>
      <point x="120" y="189"/>
      <point x="207" y="189" type="curve"/>
      <point x="296" y="189"/>
      <point x="342" y="265"/>
      <point x="342" y="362" type="curve"/>
      <point x="342" y="459"/>
      <point x="299" y="538"/>
      <point x="210" y="538" type="curve"/>
      <point x="118" y="538"/>
      <point x="75" y="457"/>
      <point x="75" y="357" type="curve"/>
      <point x="99" y="358"/>
      <point x="75" y="357"/>
    </contour>
    <contour>
      <point x="131" y="228" type="curve"/>
      <point x="95" y="196"/>
      <point x="78" y="159"/>
      <point x="78" y="109" type="curve"/>
      <point x="78" y="38"/>
      <point x="131" y="-4"/>
      <point x="204" y="-13" type="curve"/>
      <point x="290" y="-23"/>
      <point x="358" y="-63"/>
      <point x="358" y="-144" type="curve"/>
      <point x="358" y="-228"/>
      <point x="295" y="-283"/>
      <point x="207" y="-283" type="curve"/>
      <point x="122" y="-283"/>
      <point x="68" y="-220"/>
      <point x="68" y="-134" type="curve"/>
      <point x="68" y="-71"/>
      <point x="90" y="-21"/>
      <point x="144" y="11" type="curve"/>
      <point x="133" y="26"/>
      <point x="144" y="11"/>
      <point x="133" y="26" type="curve"/>
      <point x="72" y="-11"/>
      <point x="44" y="-64"/>
      <point x="44" y="-135" type="curve"/>
      <point x="44" y="-234"/>
      <point x="107" y="-304"/>
      <point x="206" y="-304" type="curve"/>
      <point x="307" y="-304"/>
      <point x="381" y="-242"/>
      <point x="380" y="-142" type="curve"/>
      <point x="380" y="-51"/>
      <point x="305" y="-4"/>
      <point x="209" y="8" type="curve"/>
      <point x="146" y="14"/>
      <point x="102" y="51"/>
      <point x="102" y="112" type="curve"/>
      <point x="102" y="154"/>
      <point x="112" y="187"/>
      <point x="145" y="214" type="curve"/>
      <point x="131" y="228"/>
      <point x="145" y="214"/>
    </contour>
    <contour>
      <point x="288" y="794" type="curve"/>
      <point x="288" y="736"/>
      <point x="265" y="692"/>
      <point x="211" y="692" type="curve"/>
      <point x="159" y="692"/>
      <point x="138" y="737"/>
      <point x="138" y="795" type="curve"/>
      <point x="114" y="795"/>
      <point x="138" y="795"/>
      <point x="114" y="795" type="curve"/>
      <point x="114" y="723"/>
      <point x="143" y="671"/>
      <point x="209" y="671" type="curve"/>
      <point x="278" y="671"/>
      <point x="311" y="721"/>
      <point x="311" y="794" type="curve"/>
      <point x="288" y="794"/>
      <point x="311" y="794"/>
    </contour>
  </outline>
</glyph>
<glyph name="gcommaaccent" format="1">
  <advance width="408"/>
  <unicode hex="0123"/>
  <outline>
    <contour>
      <point x="282" y="500" type="curve"/>
      <point x="387" y="581" type="line"/>
      <point x="373" y="600"/>
      <point x="387" y="581"/>
      <point x="373" y="600" type="curve"/>
      <point x="269" y="517" type="line"/>
      <point x="282" y="500"/>
      <point x="269" y="517"/>
    </contour>
    <contour>
      <point x="99" y="358" type="curve"/>
      <point x="99" y="442"/>
      <point x="133" y="517"/>
      <point x="210" y="517" type="curve"/>
      <point x="287" y="517"/>
      <point x="318" y="446"/>
      <point x="318" y="361" type="curve"/>
      <point x="318" y="281"/>
      <point x="285" y="210"/>
      <point x="209" y="210" type="curve"/>
      <point x="135" y="210"/>
      <point x="99" y="277"/>
      <point x="99" y="358" type="curve"/>
      <point x="75" y="357"/>
      <point x="99" y="358"/>
      <point x="75" y="357" type="curve"/>
      <point x="75" y="263"/>
      <point x="120" y="189"/>
      <point x="207" y="189" type="curve"/>
      <point x="296" y="189"/>
      <point x="342" y="265"/>
      <point x="342" y="362" type="curve"/>
      <point x="342" y="459"/>
      <point x="299" y="538"/>
      <point x="210" y="538" type="curve"/>
      <point x="118" y="538"/>
      <point x="75" y="457"/>
      <point x="75" y="357" type="curve"/>
      <point x="99" y="358"/>
      <point x="75" y="357"/>
    </contour>
    <contour>
      <point x="131" y="228" type="curve"/>
      <point x="95" y="196"/>
      <point x="78" y="159"/>
      <point x="78" y="109" type="curve"/>
      <point x="78" y="38"/>
      <point x="131" y="-4"/>
      <point x="204" y="-13" type="curve"/>
      <point x="290" y="-23"/>
      <point x="358" y="-63"/>
      <point x="358" y="-144" type="curve"/>
      <point x="358" y="-228"/>
      <point x="295" y="-283"/>
      <point x="207" y="-283" type="curve"/>
      <point x="122" y="-283"/>
      <point x="68" y="-220"/>
      <point x="68" y="-134" type="curve"/>
      <point x="68" y="-71"/>
      <point x="90" y="-21"/>
      <point x="144" y="11" type="curve"/>
      <point x="133" y="26"/>
      <point x="144" y="11"/>
      <point x="133" y="26" type="curve"/>
      <point x="72" y="-11"/>
      <point x="44" y="-64"/>
      <point x="44" y="-135" type="curve"/>
      <point x="44" y="-234"/>
      <point x="107" y="-304"/>
      <point x="206" y="-304" type="curve"/>
      <point x="307" y="-304"/>
      <point x="381" y="-242"/>
      <point x="380" y="-142" type="curve"/>
      <point x="380" y="-51"/>
      <point x="305" y="-4"/>
      <point x="209" y="8" type="curve"/>
      <point x="146" y="14"/>
      <point x="102" y="51"/>
      <point x="102" y="112" type="curve"/>
      <point x="102" y="154"/>
      <point x="112" y="187"/>
      <point x="145" y="214" type="curve"/>
      <point x="131" y="228"/>
      <point x="145" y="214"/>
    </contour>
    <contour>
      <point x="245" y="802" type="line"/>
      <point x="221" y="778"/>
      <point x="202" y="751"/>
      <point x="202" y="704" type="curve"/>
      <point x="202" y="684"/>
      <point x="205" y="667"/>
      <point x="223" y="667" type="curve"/>
      <point x="236" y="667"/>
      <point x="243" y="673"/>
      <point x="243" y="685" type="curve"/>
      <point x="243" y="695"/>
      <point x="239" y="701"/>
      <point x="228" y="706" type="curve"/>
      <point x="228" y="727"/>
      <point x="238" y="762"/>
      <point x="261" y="785" type="curve"/>
    </contour>
  </outline>
</glyph>
<glyph name="iogonek" format="1">
  <advance width="260"/>
  <unicode hex="012F"/>
  <outline>
    <contour>
      <point x="146" y="22" type="curve"/>
      <point x="25" y="22"/>
      <point x="155" y="22"/>
      <point x="34" y="22" type="curve"/>
      <point x="34" y="0"/>
      <point x="34" y="22"/>
      <point x="34" y="0" type="curve"/>
      <point x="74" y="0"/>
      <point x="106" y="0"/>
      <point x="146" y="0" type="curve"/>
      <point x="146" y="22"/>
      <point x="146" y="0"/>
    </contour>
    <contour>
      <point x="146" y="0" type="curve"/>
      <point x="183" y="0"/>
      <point x="213" y="0"/>
      <point x="251" y="0" type="curve"/>
      <point x="251" y="22"/>
      <point x="251" y="0"/>
      <point x="251" y="22" type="curve"/>
      <point x="137" y="22"/>
      <point x="260" y="22"/>
      <point x="146" y="22" type="curve"/>
      <point x="146" y="0"/>
      <point x="146" y="22"/>
    </contour>
    <contour>
      <point x="146" y="533" type="curve"/>
      <point x="106" y="533"/>
      <point x="74" y="533"/>
      <point x="34" y="533" type="curve"/>
      <point x="34" y="511"/>
      <point x="34" y="533"/>
      <point x="34" y="511" type="curve"/>
      <point x="155" y="511"/>
      <point x="25" y="511"/>
      <point x="146" y="511" type="curve"/>
      <point x="146" y="533"/>
      <point x="146" y="511"/>
    </contour>
    <contour>
      <point x="159" y="0" type="curve"/>
      <point x="159" y="178"/>
      <point x="159" y="355"/>
      <point x="159" y="533" type="curve"/>
      <point x="133" y="533"/>
      <point x="159" y="533"/>
      <point x="133" y="533" type="curve"/>
      <point x="133" y="355"/>
      <point x="133" y="178"/>
      <point x="133" y="0" type="curve"/>
      <point x="159" y="0"/>
      <point x="133" y="0"/>
    </contour>
    <contour>
      <point x="162" y="685" type="curve"/>
      <point x="162" y="696"/>
      <point x="155" y="702"/>
      <point x="144" y="702" type="curve"/>
      <point x="133" y="702"/>
      <point x="127" y="695"/>
      <point x="127" y="685" type="curve"/>
      <point x="162" y="685"/>
      <point x="127" y="685"/>
      <point x="162" y="685" type="curve"/>
      <point x="162" y="674"/>
      <point x="155" y="668"/>
      <point x="144" y="668" type="curve"/>
      <point x="133" y="668"/>
      <point x="127" y="674"/>
      <point x="127" y="685" type="curve"/>
      <point x="162" y="685"/>
      <point x="127" y="685"/>
    </contour>
    <contour>
      <point x="150" y="15" type="curve"/>
      <point x="102" y="-10"/>
      <point x="71" y="-46"/>
      <point x="71" y="-99" type="curve"/>
      <point x="71" y="-151"/>
      <point x="94" y="-194"/>
      <point x="141" y="-194" type="curve"/>
      <point x="166" y="-194"/>
      <point x="183" y="-179"/>
      <point x="201" y="-162" type="curve"/>
      <point x="196" y="-157"/>
      <point x="192" y="-154"/>
      <point x="187" y="-149" type="curve"/>
      <point x="173" y="-162"/>
      <point x="161" y="-172"/>
      <point x="143" y="-172" type="curve"/>
      <point x="108" y="-172"/>
      <point x="94" y="-138"/>
      <point x="94" y="-99" type="curve"/>
      <point x="94" y="-54"/>
      <point x="119" y="-23"/>
      <point x="159" y="0" type="curve"/>
      <point x="156" y="5"/>
      <point x="153" y="10"/>
    </contour>
  </outline>
</glyph>
<glyph name="dotlessi" format="1">
  <advance width="260"/>
  <unicode hex="0131"/>
  <outline>
    <contour>
      <point x="144" y="671" type="move" name="top"/>
    </contour>
    <contour>
      <point x="146" y="22" type="curve"/>
      <point x="25" y="22"/>
      <point x="155" y="22"/>
      <point x="34" y="22" type="curve"/>
      <point x="34" y="0"/>
      <point x="34" y="22"/>
      <point x="34" y="0" type="curve"/>
      <point x="74" y="0"/>
      <point x="106" y="0"/>
      <point x="146" y="0" type="curve"/>
      <point x="146" y="22"/>
      <point x="146" y="0"/>
    </contour>
    <contour>
      <point x="146" y="0" type="curve"/>
      <point x="183" y="0"/>
      <point x="213" y="0"/>
      <point x="251" y="0" type="curve"/>
      <point x="251" y="22"/>
      <point x="251" y="0"/>
      <point x="251" y="22" type="curve"/>
      <point x="137" y="22"/>
      <point x="260" y="22"/>
      <point x="146" y="22" type="curve"/>
      <point x="146" y="0"/>
      <point x="146" y="22"/>
    </contour>
    <contour>
      <point x="146" y="533" type="curve"/>
      <point x="106" y="533"/>
      <point x="74" y="533"/>
      <point x="34" y="533" type="curve"/>
      <point x="34" y="511"/>
      <point x="34" y="533"/>
      <point x="34" y="511" type="curve"/>
      <point x="155" y="511"/>
      <point x="25" y="511"/>
      <point x="146" y="511" type="curve"/>
      <point x="146" y="533"/>
      <point x="146" y="511"/>
    </contour>
    <contour>
      <point x="159" y="0" type="curve"/>
      <point x="159" y="178"/>
      <point x="159" y="355"/>
      <point x="159" y="533" type="curve"/>
      <point x="133" y="533"/>
      <point x="159" y="533"/>
      <point x="133" y="533" type="curve"/>
      <point x="133" y="355"/>
      <point x="133" y="178"/>
      <point x="133" y="0" type="curve"/>
      <point x="159" y="0"/>
      <point x="133" y="0"/>
    </contour>
  </outline>
</glyph>
<glyph name="Lcaron" format="1">
  <advance width="489"/>
  <unicode hex="013D"/>
  <outline>
    <contour>
      <point x="447" y="11" type="curve"/>
      <point x="447" y="131"/>
      <point x="447" y="1"/>
      <point x="447" y="121" type="curve"/>
      <point x="425" y="121"/>
      <point x="447" y="121"/>
      <point x="425" y="121" type="curve"/>
      <point x="425" y="1"/>
      <point x="425" y="131"/>
      <point x="425" y="11" type="curve"/>
      <point x="447" y="11"/>
      <point x="425" y="11"/>
    </contour>
    <contour>
      <point x="151" y="22" type="curve"/>
      <point x="19" y="22"/>
      <point x="171" y="22"/>
      <point x="39" y="22" type="curve"/>
      <point x="39" y="0"/>
      <point x="39" y="22"/>
      <point x="39" y="0" type="curve"/>
      <point x="83" y="0"/>
      <point x="107" y="0"/>
      <point x="151" y="0" type="curve"/>
      <point x="151" y="22"/>
      <point x="151" y="0"/>
    </contour>
    <contour>
      <point x="151" y="722" type="curve"/>
      <point x="107" y="722"/>
      <point x="83" y="722"/>
      <point x="39" y="722" type="curve"/>
      <point x="39" y="700"/>
      <point x="39" y="722"/>
      <point x="39" y="700" type="curve"/>
      <point x="171" y="700"/>
      <point x="19" y="700"/>
      <point x="151" y="700" type="curve"/>
      <point x="151" y="722"/>
      <point x="151" y="700"/>
    </contour>
    <contour>
      <point x="151" y="700" type="curve"/>
      <point x="283" y="700"/>
      <point x="131" y="700"/>
      <point x="263" y="700" type="curve"/>
      <point x="263" y="722"/>
      <point x="263" y="700"/>
      <point x="263" y="722" type="curve"/>
      <point x="219" y="722"/>
      <point x="195" y="722"/>
      <point x="151" y="722" type="curve"/>
      <point x="151" y="700"/>
      <point x="151" y="722"/>
    </contour>
    <contour>
      <point x="164" y="0" type="curve"/>
      <point x="164" y="241"/>
      <point x="164" y="481"/>
      <point x="164" y="722" type="curve"/>
      <point x="140" y="722"/>
      <point x="164" y="722"/>
      <point x="140" y="722" type="curve"/>
      <point x="140" y="481"/>
      <point x="140" y="241"/>
      <point x="140" y="0" type="curve"/>
      <point x="164" y="0"/>
      <point x="140" y="0"/>
    </contour>
    <contour>
      <point x="151" y="0" type="curve"/>
      <point x="250" y="0"/>
      <point x="348" y="0"/>
      <point x="447" y="0" type="curve"/>
      <point x="447" y="22"/>
      <point x="447" y="0"/>
      <point x="447" y="22" type="curve"/>
      <point x="348" y="22"/>
      <point x="250" y="22"/>
      <point x="151" y="22" type="curve"/>
      <point x="151" y="0"/>
      <point x="151" y="22"/>
    </contour>
    <contour>
      <point x="396" y="591" type="line"/>
      <point x="420" y="615"/>
      <point x="439" y="642"/>
      <point x="439" y="689" type="curve"/>
      <point x="439" y="709"/>
      <point x="436" y="726"/>
      <point x="418" y="726" type="curve"/>
      <point x="405" y="726"/>
      <point x="398" y="720"/>
      <point x="398" y="708" type="curve"/>
      <point x="398" y="698"/>
      <point x="402" y="692"/>
      <point x="413" y="687" type="curve"/>
      <point x="413" y="666"/>
      <point x="403" y="631"/>
      <point x="380" y="608" type="curve"/>
    </contour>
  </outline>
</glyph>
<glyph name="Ncaron" format="1">
  <advance width="666"/>
  <unicode hex="0147"/>
  <outline>
    <contour>
      <point x="153" y="722" type="curve"/>
      <point x="109" y="722"/>
      <point x="85" y="722"/>
      <point x="41" y="722" type="curve"/>
      <point x="41" y="700"/>
      <point x="41" y="722"/>
      <point x="41" y="700" type="curve"/>
      <point x="173" y="700"/>
      <point x="21" y="700"/>
      <point x="153" y="700" type="curve"/>
      <point x="153" y="722"/>
      <point x="153" y="700"/>
    </contour>
    <contour>
      <point x="531" y="700" type="curve"/>
      <point x="663" y="700"/>
      <point x="511" y="700"/>
      <point x="643" y="700" type="curve"/>
      <point x="643" y="722"/>
      <point x="643" y="700"/>
      <point x="643" y="722" type="curve"/>
      <point x="599" y="722"/>
      <point x="575" y="722"/>
      <point x="531" y="722" type="curve"/>
      <point x="531" y="700"/>
      <point x="531" y="722"/>
    </contour>
    <contour>
      <point x="531" y="722" type="curve"/>
      <point x="487" y="722"/>
      <point x="463" y="722"/>
      <point x="419" y="722" type="curve"/>
      <point x="419" y="700"/>
      <point x="419" y="722"/>
      <point x="419" y="700" type="curve"/>
      <point x="551" y="700"/>
      <point x="399" y="700"/>
      <point x="531" y="700" type="curve"/>
      <point x="531" y="722"/>
      <point x="531" y="700"/>
    </contour>
    <contour>
      <point x="152" y="22" type="curve"/>
      <point x="20" y="22"/>
      <point x="172" y="22"/>
      <point x="40" y="22" type="curve"/>
      <point x="40" y="0"/>
      <point x="40" y="22"/>
      <point x="40" y="0" type="curve"/>
      <point x="84" y="0"/>
      <point x="108" y="0"/>
      <point x="152" y="0" type="curve"/>
      <point x="152" y="22"/>
      <point x="152" y="0"/>
    </contour>
    <contour>
      <point x="152" y="0" type="curve"/>
      <point x="196" y="0"/>
      <point x="132" y="0"/>
      <point x="264" y="0" type="curve"/>
      <point x="264" y="22"/>
      <point x="264" y="0"/>
      <point x="264" y="22" type="curve"/>
      <point x="132" y="22"/>
      <point x="284" y="22"/>
      <point x="152" y="22" type="curve"/>
      <point x="152" y="0"/>
      <point x="152" y="22"/>
    </contour>
    <contour>
      <point x="542" y="0" type="curve"/>
      <point x="417" y="241"/>
      <point x="292" y="481"/>
      <point x="167" y="722" type="curve"/>
      <point x="138" y="722"/>
      <point x="168" y="722"/>
      <point x="139" y="722" type="curve"/>
      <point x="264" y="481"/>
      <point x="389" y="241"/>
      <point x="514" y="0" type="curve"/>
      <point x="543" y="0"/>
      <point x="513" y="0"/>
    </contour>
    <contour>
      <point x="518" y="722" type="curve"/>
      <point x="518" y="481"/>
      <point x="518" y="241"/>
      <point x="518" y="0" type="curve"/>
      <point x="542" y="0"/>
      <point x="518" y="0"/>
      <point x="542" y="0" type="curve"/>
      <point x="542" y="241"/>
      <point x="542" y="481"/>
      <point x="542" y="722" type="curve"/>
      <point x="518" y="722"/>
      <point x="542" y="722"/>
    </contour>
    <contour>
      <point x="164" y="0" type="curve"/>
      <point x="164" y="241"/>
      <point x="164" y="481"/>
      <point x="164" y="722" type="curve"/>
      <point x="140" y="722"/>
      <point x="164" y="722"/>
      <point x="140" y="722" type="curve"/>
      <point x="140" y="481"/>
      <point x="140" y="241"/>
      <point x="140" y="0" type="curve"/>
      <point x="164" y="0"/>
      <point x="140" y="0"/>
    </contour>
    <contour>
      <point x="412" y="991" type="line"/>
      <point x="339" y="825" type="line"/>
      <point x="370" y="825" type="line"/>
      <point x="436" y="991" type="line"/>
    </contour>
    <contour>
      <point x="263" y="991" type="line"/>
      <point x="329" y="825" type="line"/>
      <point x="360" y="825" type="line"/>
      <point x="287" y="991" type="line"/>
    </contour>
  </outline>
</glyph>
<glyph name="ohungarumlaut" format="1">
  <advance width="454"/>
  <unicode hex="0151"/>
  <outline>
    <contour>
      <point x="88" y="268" type="curve"/>
      <point x="88" y="406"/>
      <point x="114" y="517"/>
      <point x="225" y="517" type="curve"/>
      <point x="341" y="517"/>
      <point x="366" y="404"/>
      <point x="366" y="266" type="curve"/>
      <point x="366" y="129"/>
      <point x="340" y="17"/>
      <point x="228" y="17" type="curve"/>
      <point x="108" y="17"/>
      <point x="88" y="131"/>
      <point x="88" y="268" type="curve"/>
      <point x="64" y="268"/>
      <point x="88" y="268"/>
      <point x="64" y="268" type="curve"/>
      <point x="64" y="117"/>
      <point x="95" y="-5"/>
      <point x="227" y="-5" type="curve"/>
      <point x="358" y="-5"/>
      <point x="390" y="115"/>
      <point x="390" y="266" type="curve"/>
      <point x="390" y="417"/>
      <point x="358" y="538"/>
      <point x="226" y="538" type="curve"/>
      <point x="96" y="538"/>
      <point x="64" y="417"/>
      <point x="64" y="268" type="curve"/>
      <point x="88" y="268"/>
      <point x="64" y="268"/>
    </contour>
    <contour>
      <point x="172" y="698" type="line"/>
      <point x="245" y="864" type="line"/>
      <point x="214" y="864" type="line"/>
      <point x="148" y="698" type="line"/>
    </contour>
    <contour>
      <point x="272" y="698" type="line"/>
      <point x="345" y="864" type="line"/>
      <point x="314" y="864" type="line"/>
      <point x="248" y="698" type="line"/>
    </contour>
  </outline>
</glyph>
<glyph name="rcommaaccent" format="1">
  <advance width="351"/>
  <unicode hex="0157"/>
  <outline>
    <contour>
      <point x="146" y="0" type="curve"/>
      <point x="184" y="0"/>
      <point x="214" y="0"/>
      <point x="251" y="0" type="curve"/>
      <point x="251" y="22"/>
      <point x="251" y="0"/>
      <point x="251" y="22" type="curve"/>
      <point x="137" y="22"/>
      <point x="260" y="22"/>
      <point x="146" y="22" type="curve"/>
      <point x="146" y="0"/>
      <point x="146" y="22"/>
    </contour>
    <contour>
      <point x="146" y="22" type="curve"/>
      <point x="25" y="22"/>
      <point x="155" y="22"/>
      <point x="34" y="22" type="curve"/>
      <point x="34" y="0"/>
      <point x="34" y="22"/>
      <point x="34" y="0" type="curve"/>
      <point x="74" y="0"/>
      <point x="106" y="0"/>
      <point x="146" y="0" type="curve"/>
      <point x="146" y="22"/>
      <point x="146" y="0"/>
    </contour>
    <contour>
      <point x="146" y="533" type="curve"/>
      <point x="106" y="533"/>
      <point x="74" y="533"/>
      <point x="34" y="533" type="curve"/>
      <point x="34" y="511"/>
      <point x="34" y="533"/>
      <point x="34" y="511" type="curve"/>
      <point x="155" y="511"/>
      <point x="25" y="511"/>
      <point x="146" y="511" type="curve"/>
      <point x="146" y="533"/>
      <point x="146" y="511"/>
    </contour>
    <contour>
      <point x="158" y="0" type="curve"/>
      <point x="158" y="178"/>
      <point x="158" y="355"/>
      <point x="158" y="533" type="curve"/>
      <point x="134" y="533"/>
      <point x="158" y="533"/>
      <point x="134" y="533" type="curve"/>
      <point x="134" y="355"/>
      <point x="134" y="178"/>
      <point x="134" y="0" type="curve"/>
      <point x="158" y="0"/>
      <point x="134" y="0"/>
    </contour>
    <contour>
      <point x="152" y="371" type="curve"/>
      <point x="168" y="456"/>
      <point x="242" y="516"/>
      <point x="321" y="516" type="curve"/>
      <point x="321" y="543"/>
      <point x="321" y="511"/>
      <point x="321" y="538" type="curve"/>
      <point x="235" y="538"/>
      <point x="161" y="483"/>
      <point x="140" y="394" type="curve"/>
      <point x="153" y="381"/>
      <point x="144" y="381"/>
    </contour>
    <contour>
      <point x="111" y="-211" type="line"/>
      <point x="135" y="-187"/>
      <point x="154" y="-160"/>
      <point x="154" y="-113" type="curve"/>
      <point x="154" y="-93"/>
      <point x="151" y="-76"/>
      <point x="133" y="-76" type="curve"/>
      <point x="120" y="-76"/>
      <point x="113" y="-82"/>
      <point x="113" y="-94" type="curve"/>
      <point x="113" y="-104"/>
      <point x="117" y="-110"/>
      <point x="128" y="-115" type="curve"/>
      <point x="128" y="-136"/>
      <point x="118" y="-171"/>
      <point x="95" y="-194" type="curve"/>
    </contour>
  </outline>
</glyph>
<glyph name="Ydieresis" format="1">
  <advance width="552"/>
  <unicode hex="0178"/>
  <outline>
    <contour>
      <point x="259" y="22" type="curve"/>
      <point x="138" y="22"/>
      <point x="268" y="22"/>
      <point x="147" y="22" type="curve"/>
      <point x="147" y="0"/>
      <point x="147" y="22"/>
      <point x="147" y="0" type="curve"/>
      <point x="187" y="0"/>
      <point x="219" y="0"/>
      <point x="259" y="0" type="curve"/>
      <point x="259" y="22"/>
      <point x="259" y="0"/>
    </contour>
    <contour>
      <point x="259" y="0" type="curve"/>
      <point x="299" y="0"/>
      <point x="331" y="0"/>
      <point x="371" y="0" type="curve"/>
      <point x="371" y="22"/>
      <point x="371" y="0"/>
      <point x="371" y="22" type="curve"/>
      <point x="250" y="22"/>
      <point x="380" y="22"/>
      <point x="259" y="22" type="curve"/>
      <point x="259" y="0"/>
      <point x="259" y="22"/>
    </contour>
    <contour>
      <point x="424" y="722" type="curve"/>
      <point x="384" y="722"/>
      <point x="352" y="722"/>
      <point x="312" y="722" type="curve"/>
      <point x="312" y="700"/>
      <point x="312" y="722"/>
      <point x="312" y="700" type="curve"/>
      <point x="433" y="700"/>
      <point x="303" y="700"/>
      <point x="424" y="700" type="curve"/>
      <point x="424" y="722"/>
      <point x="424" y="700"/>
    </contour>
    <contour>
      <point x="103" y="722" type="curve"/>
      <point x="63" y="722"/>
      <point x="31" y="722"/>
      <point x="-9" y="722" type="curve"/>
      <point x="-9" y="700"/>
      <point x="-9" y="722"/>
      <point x="-9" y="700" type="curve"/>
      <point x="112" y="700"/>
      <point x="-18" y="700"/>
      <point x="103" y="700" type="curve"/>
      <point x="103" y="722"/>
      <point x="103" y="700"/>
    </contour>
    <contour>
      <point x="103" y="700" type="curve"/>
      <point x="224" y="700"/>
      <point x="94" y="700"/>
      <point x="215" y="700" type="curve"/>
      <point x="215" y="722"/>
      <point x="215" y="700"/>
      <point x="215" y="722" type="curve"/>
      <point x="175" y="722"/>
      <point x="143" y="722"/>
      <point x="103" y="722" type="curve"/>
      <point x="103" y="700"/>
      <point x="103" y="722"/>
    </contour>
    <contour>
      <point x="424" y="700" type="curve"/>
      <point x="545" y="700"/>
      <point x="415" y="700"/>
      <point x="536" y="700" type="curve"/>
      <point x="536" y="722"/>
      <point x="536" y="700"/>
      <point x="536" y="722" type="curve"/>
      <point x="496" y="722"/>
      <point x="464" y="722"/>
      <point x="424" y="722" type="curve"/>
      <point x="424" y="700"/>
      <point x="424" y="722"/>
    </contour>
    <contour>
      <point x="81" y="722" type="curve"/>
      <point x="136" y="594"/>
      <point x="191" y="465"/>
      <point x="246" y="337" type="curve"/>
      <point x="272" y="337"/>
      <point x="246" y="337"/>
      <point x="272" y="337" type="curve"/>
      <point x="217" y="465"/>
      <point x="162" y="594"/>
      <point x="108" y="722" type="curve"/>
      <point x="81" y="722"/>
      <point x="108" y="722"/>
    </contour>
    <contour>
      <point x="419" y="722" type="curve"/>
      <point x="362" y="594"/>
      <point x="304" y="465"/>
      <point x="246" y="337" type="curve"/>
      <point x="272" y="337"/>
      <point x="246" y="337"/>
      <point x="272" y="337" type="curve"/>
      <point x="330" y="465"/>
      <point x="388" y="594"/>
      <point x="446" y="722" type="curve"/>
      <point x="419" y="722"/>
      <point x="446" y="722"/>
    </contour>
    <contour>
      <point x="272" y="0" type="curve"/>
      <point x="272" y="115"/>
      <point x="272" y="231"/>
      <point x="272" y="346" type="curve"/>
      <point x="246" y="346"/>
      <point x="272" y="346"/>
      <point x="246" y="346" type="curve"/>
      <point x="246" y="231"/>
      <point x="246" y="115"/>
      <point x="246" y="0" type="curve"/>
      <point x="272" y="0"/>
      <point x="246" y="0"/>
    </contour>
    <contour>
      <point x="236" y="839" type="curve"/>
      <point x="236" y="850"/>
      <point x="229" y="856"/>
      <point x="218" y="856" type="curve"/>
      <point x="207" y="856"/>
      <point x="201" y="849"/>
      <point x="201" y="839" type="curve"/>
      <point x="236" y="839"/>
      <point x="201" y="839"/>
      <point x="236" y="839" type="curve"/>
      <point x="236" y="828"/>
      <point x="229" y="822"/>
      <point x="218" y="822" type="curve"/>
      <point x="207" y="822"/>
      <point x="201" y="828"/>
      <point x="201" y="839" type="curve"/>
      <point x="236" y="839"/>
      <point x="201" y="839"/>
    </contour>
    <contour>
      <point x="320" y="839" type="curve"/>
      <point x="320" y="850"/>
      <point x="313" y="856"/>
      <point x="302" y="856" type="curve"/>
      <point x="291" y="856"/>
      <point x="285" y="849"/>
      <point x="285" y="839" type="curve"/>
      <point x="320" y="839"/>
      <point x="285" y="839"/>
      <point x="320" y="839" type="curve"/>
      <point x="320" y="828"/>
      <point x="313" y="822"/>
      <point x="302" y="822" type="curve"/>
      <point x="291" y="822"/>
      <point x="285" y="828"/>
      <point x="285" y="839" type="curve"/>
      <point x="320" y="839"/>
      <point x="285" y="839"/>
    </contour>
  </outline>
</glyph>
<glyph name="zdotaccent" format="1">
  <advance width="408"/>
  <unicode hex="017C"/>
  <outline>
    <contour>
      <point x="67" y="511" type="curve"/>
      <point x="155" y="511"/>
      <point x="236" y="511"/>
      <point x="324" y="511" type="curve"/>
      <point x="322" y="514"/>
      <point x="320" y="516"/>
      <point x="317" y="518" type="curve"/>
      <point x="315" y="519"/>
      <point x="315" y="522"/>
      <point x="313" y="523" type="curve"/>
      <point x="310" y="519"/>
      <point x="307" y="516"/>
      <point x="305" y="512" type="curve"/>
      <point x="53" y="22" type="line"/>
      <point x="53" y="10"/>
      <point x="53" y="22"/>
      <point x="53" y="10" type="curve"/>
      <point x="53" y="0"/>
      <point x="53" y="10"/>
      <point x="53" y="0" type="curve"/>
      <point x="60" y="0"/>
      <point x="53" y="0"/>
      <point x="60" y="0" type="curve"/>
      <point x="359" y="0"/>
      <point x="257" y="0"/>
      <point x="357" y="0" type="curve"/>
      <point x="357" y="22"/>
      <point x="357" y="0"/>
      <point x="357" y="22" type="curve"/>
      <point x="257" y="22"/>
      <point x="160" y="22"/>
      <point x="60" y="22" type="curve"/>
      <point x="62" y="20"/>
      <point x="65" y="18"/>
      <point x="67" y="16" type="curve"/>
      <point x="69" y="15"/>
      <point x="70" y="11"/>
      <point x="72" y="10" type="curve"/>
      <point x="75" y="14"/>
      <point x="76" y="17"/>
      <point x="78" y="21" type="curve"/>
      <point x="331" y="511" type="line"/>
      <point x="331" y="523"/>
      <point x="331" y="511"/>
      <point x="331" y="523" type="curve"/>
      <point x="331" y="533"/>
      <point x="331" y="523"/>
      <point x="331" y="533" type="curve"/>
      <point x="324" y="533"/>
      <point x="331" y="533"/>
      <point x="324" y="533" type="curve"/>
      <point x="236" y="533"/>
      <point x="155" y="533"/>
      <point x="67" y="533" type="curve"/>
      <point x="67" y="511"/>
      <point x="67" y="533"/>
    </contour>
    <contour>
      <point x="67" y="522" type="curve"/>
      <point x="67" y="402"/>
      <point x="67" y="532"/>
      <point x="67" y="412" type="curve"/>
      <point x="88" y="412"/>
      <point x="67" y="412"/>
      <point x="88" y="412" type="curve"/>
      <point x="88" y="532"/>
      <point x="88" y="402"/>
      <point x="88" y="522" type="curve"/>
      <point x="67" y="522"/>
      <point x="88" y="522"/>
    </contour>
    <contour>
      <point x="357" y="11" type="curve"/>
      <point x="357" y="131"/>
      <point x="357" y="1"/>
      <point x="357" y="121" type="curve"/>
      <point x="335" y="121"/>
      <point x="357" y="121"/>
      <point x="335" y="121" type="curve"/>
      <point x="335" y="1"/>
      <point x="335" y="131"/>
      <point x="335" y="11" type="curve"/>
      <point x="357" y="11"/>
      <point x="335" y="11"/>
    </contour>
    <contour>
      <point x="220" y="685" type="curve"/>
      <point x="220" y="696"/>
      <point x="213" y="702"/>
      <point x="202" y="702" type="curve"/>
      <point x="191" y="702"/>
      <point x="185" y="695"/>
      <point x="185" y="685" type="curve"/>
      <point x="220" y="685"/>
      <point x="185" y="685"/>
      <point x="220" y="685" type="curve"/>
      <point x="220" y="674"/>
      <point x="213" y="668"/>
      <point x="202" y="668" type="curve"/>
      <point x="191" y="668"/>
      <point x="185" y="674"/>
      <point x="185" y="685" type="curve"/>
      <point x="220" y="685"/>
      <point x="185" y="685"/>
    </contour>
  </outline>
</glyph>
<glyph name="caron" format="1">
  <advance width="284"/>
  <unicode hex="02C7"/>
  <outline>
    <contour>
      <point x="90" y="592" type="move" name="_top"/>
    </contour>
    <contour>
      <point x="153" y="758" type="line"/>
      <point x="80" y="592" type="line"/>
      <point x="111" y="592" type="line"/>
      <point x="177" y="758" type="line"/>
    </contour>
    <contour>
      <point x="4" y="758" type="line"/>
      <point x="70" y="592" type="line"/>
      <point x="101" y="592" type="line"/>
      <point x="28" y="758" type="line"/>
    </contour>
  </outline>
</glyph>
<glyph name="dvTTHA" format="1">
  <advance width="480"/>
  <unicode hex="0920"/>
  <outline>
    <contour>
      <point x="323" y="12" type="move" name="blwm.virama"/>
    </contour>
    <contour>
      <point x="257" y="722" type="move" name="abvm.e"/>
    </contour>
    <contour>
      <point x="343" y="-73" type="move" name="blwm.u"/>
    </contour>
    <contour>
      <point x="393" y="307" type="curve"/>
      <point x="393" y="190"/>
      <point x="352" y="89"/>
      <point x="248" y="89" type="curve"/>
      <point x="143" y="89"/>
      <point x="100" y="190"/>
      <point x="100" y="308" type="curve"/>
      <point x="100" y="420"/>
      <point x="143" y="515"/>
      <point x="243" y="515" type="curve"/>
      <point x="345" y="515"/>
      <point x="393" y="420"/>
      <point x="393" y="307" type="curve"/>
      <point x="402" y="307"/>
      <point x="408" y="307"/>
      <point x="417" y="307" type="curve"/>
      <point x="417" y="433"/>
      <point x="359" y="536"/>
      <point x="244" y="536" type="curve"/>
      <point x="131" y="536"/>
      <point x="76" y="433"/>
      <point x="76" y="308" type="curve"/>
      <point x="76" y="177"/>
      <point x="129" y="67"/>
      <point x="246" y="67" type="curve"/>
      <point x="364" y="67"/>
      <point x="417" y="177"/>
      <point x="417" y="307" type="curve"/>
      <point x="408" y="307"/>
      <point x="402" y="307"/>
    </contour>
    <component base="dvTopbar" xScale="0.759066450979" xOffset="-14"/>
    <component base="dvStem_short" yScale="0.846165276117" xOffset="-47" yOffset="109"/>
  </outline>
</glyph>
<glyph name="dvDA" format="1">
  <advance width="414"/>
  <unicode hex="0926"/>
  <outline>
    <contour>
      <point x="352" y="-10" type="move" name="blwm.virama"/>
    </contour>
    <contour>
      <point x="318" y="719" type="move" name="abvm.e"/>
    </contour>
    <contour>
      <point x="352" y="9" type="move" name="blwm.u"/>
    </contour>
    <component base="dvDA_base"/>
    <component base="dvTopbar" xScale="0.679059212239" xOffset="-18"/>
    <component base="dvStroke_down"/>
  </outline>
</glyph>
<glyph name="dvPHA" format="1">
  <advance width="672"/>
  <unicode hex="092B"/>
  <outline>
    <contour>
      <point x="364" y="0" type="move" name="blwm.virama"/>
    </contour>
    <contour>
      <point x="364" y="720" type="move" name="abvm.e"/>
    </contour>
    <contour>
      <point x="364" y="0" type="move" name="blwm.u"/>
    </contour>
    <component base="dvTopbar" xOffset="15"/>
    <component base="dvKA_right" xOffset="4" yOffset="-24"/>
    <component base="dvPA"/>
  </outline>
</glyph>
<glyph name="dvBA" format="1">
  <advance width="506"/>
  <unicode hex="092C"/>
  <outline>
    <contour>
      <point x="371" y="290" type="curve"/>
      <point x="354" y="198"/>
      <point x="311" y="130"/>
      <point x="223" y="130" type="curve"/>
      <point x="123" y="130"/>
      <point x="85" y="220"/>
      <point x="85" y="331" type="curve"/>
      <point x="85" y="452"/>
      <point x="116" y="554"/>
      <point x="222" y="554" type="curve"/>
      <point x="309" y="554"/>
      <point x="349" y="487"/>
      <point x="372" y="399" type="curve"/>
      <point x="376" y="405"/>
      <point x="380" y="408"/>
      <point x="384" y="414" type="curve"/>
      <point x="364" y="508"/>
      <point x="317" y="575"/>
      <point x="225" y="575" type="curve"/>
      <point x="105" y="575"/>
      <point x="62" y="466"/>
      <point x="62" y="331" type="curve"/>
      <point x="62" y="206"/>
      <point x="109" y="108"/>
      <point x="221" y="108" type="curve"/>
      <point x="320" y="108"/>
      <point x="373" y="180"/>
      <point x="387" y="282" type="curve"/>
      <point x="381" y="285"/>
      <point x="377" y="287"/>
    </contour>
    <component base="dvDiagonal" xOffset="8" yOffset="17"/>
    <component base="dvTopbar" xScale="0.744189724163" xOffset="-3"/>
    <component base="dvStemright" xOffset="281"/>
  </outline>
</glyph>
<glyph name="dvSA" format="1">
  <advance width="610"/>
  <unicode hex="0938"/>
  <outline>
    <contour>
      <point x="100" y="386" type="curve"/>
      <point x="204" y="398"/>
      <point x="274" y="452"/>
      <point x="274" y="546" type="curve"/>
      <point x="274" y="613"/>
      <point x="257" y="660"/>
      <point x="218" y="716" type="curve"/>
      <point x="200" y="702" type="line"/>
      <point x="238" y="651"/>
      <point x="250" y="606"/>
      <point x="250" y="543" type="curve"/>
      <point x="250" y="456"/>
      <point x="171" y="410"/>
      <point x="76" y="407" type="curve"/>
      <point x="85" y="399"/>
      <point x="91" y="394"/>
    </contour>
    <contour>
      <point x="76" y="407" type="curve"/>
      <point x="76" y="219"/>
      <point x="69" y="7"/>
      <point x="203" y="7" type="curve"/>
      <point x="275" y="7"/>
      <point x="308" y="70"/>
      <point x="321" y="150" type="curve"/>
      <point x="302" y="160" type="line"/>
      <point x="289" y="91"/>
      <point x="264" y="29"/>
      <point x="205" y="29" type="curve"/>
      <point x="100" y="29"/>
      <point x="100" y="212"/>
      <point x="100" y="386" type="curve"/>
      <point x="91" y="394"/>
      <point x="85" y="399"/>
    </contour>
    <component base="dvConnector" xOffset="46" yOffset="64"/>
    <component base="dvTopbar" xScale="0.734301445891" xOffset="-14"/>
    <component base="dvStemright" xOffset="387"/>
  </outline>
</glyph>
<glyph name="dvmUU" format="1">
  <advance width="0"/>
  <unicode hex="0942"/>
  <outline>
    <contour>
      <point x="-37" y="45" type="move" name="_blwm.u"/>
    </contour>
    <contour>
      <point x="-71" y="-229" type="line"/>
      <point x="-142" y="-229"/>
      <point x="-180" y="-170"/>
      <point x="-180" y="-95" type="curve"/>
      <point x="-180" y="-21"/>
      <point x="-136" y="33"/>
      <point x="-64" y="33" type="curve"/>
      <point x="48" y="33"/>
      <point x="66" y="-105"/>
      <point x="78" y="-246" type="curve"/>
      <point x="102" y="-241" type="line"/>
      <point x="86" y="-91"/>
      <point x="71" y="54"/>
      <point x="-64" y="54" type="curve"/>
      <point x="-150" y="54"/>
      <point x="-205" y="-8"/>
      <point x="-205" y="-95" type="curve"/>
      <point x="-205" y="-184"/>
      <point x="-156" y="-251"/>
      <point x="-72" y="-251" type="curve"/>
    </contour>
  </outline>
</glyph>
<glyph name="dvmvR" format="1">
  <advance width="0"/>
  <unicode hex="0943"/>
  <outline>
    <contour>
      <point x="-55" y="30" type="move" name="_blwm.u"/>
    </contour>
    <contour>
      <point x="-38" y="-234" type="line"/>
      <point x="-120" y="-234"/>
      <point x="-182" y="-186"/>
      <point x="-182" y="-107" type="curve"/>
      <point x="-182" y="-30"/>
      <point x="-142" y="30"/>
      <point x="-70" y="30" type="curve"/>
      <point x="-70" y="51" type="line"/>
      <point x="-155" y="51"/>
      <point x="-206" y="-17"/>
      <point x="-206" y="-106" type="curve"/>
      <point x="-206" y="-198"/>
      <point x="-134" y="-255"/>
      <point x="-38" y="-255" type="curve"/>
    </contour>
  </outline>
</glyph>
<glyph name="quoteright" format="1">
  <advance width="202"/>
  <unicode hex="2019"/>
  <outline>
    <contour>
      <point x="100" y="591" type="line"/>
      <point x="124" y="615"/>
      <point x="143" y="642"/>
      <point x="143" y="689" type="curve"/>
      <point x="143" y="709"/>
      <point x="140" y="726"/>
      <point x="122" y="726" type="curve"/>
      <point x="109" y="726"/>
      <point x="102" y="720"/>
      <point x="102" y="708" type="curve"/>
      <point x="102" y="698"/>
      <point x="106" y="692"/>
      <point x="117" y="687" type="curve"/>
      <point x="117" y="666"/>
      <point x="107" y="631"/>
      <point x="84" y="608" type="curve"/>
    </contour>
  </outline>
</glyph>
<glyph name="bullet" format="1">
  <advance width="286"/>
  <unicode hex="2022"/>
  <outline>
    <contour>
      <point x="178" y="440" type="curve"/>
      <point x="178" y="462"/>
      <point x="164" y="474"/>
      <point x="142" y="474" type="curve"/>
      <point x="120" y="474"/>
      <point x="108" y="460"/>
      <point x="108" y="440" type="curve"/>
      <point x="178" y="440"/>
      <point x="108" y="440"/>
      <point x="178" y="440" type="curve"/>
      <point x="178" y="418"/>
      <point x="164" y="406"/>
      <point x="142" y="406" type="curve"/>
      <point x="120" y="406"/>
      <point x="108" y="418"/>
      <point x="108" y="440" type="curve"/>
      <point x="178" y="440"/>
      <point x="108" y="440"/>
    </contour>
  </outline>
</glyph>
<glyph name="indianrupee" format="1">
  <advance width="428"/>
  <unicode hex="20B9"/>
  <outline>
    <contour>
      <point x="131" y="314" type="curve"/>
      <point x="221" y="325"/>
      <point x="261" y="403"/>
      <point x="261" y="499" type="curve"/>
      <point x="261" y="561"/>
      <point x="245" y="609"/>
      <point x="210" y="660" type="curve"/>
      <point x="204" y="655"/>
      <point x="198" y="651"/>
      <point x="192" y="646" type="curve"/>
      <point x="227" y="600"/>
      <point x="237" y="554"/>
      <point x="237" y="496" type="curve"/>
      <point x="237" y="405"/>
      <point x="191" y="335"/>
      <point x="107" y="335" type="curve"/>
      <point x="116" y="327"/>
      <point x="122" y="322"/>
    </contour>
    <contour>
      <point x="107" y="335" type="curve"/>
      <point x="116" y="168"/>
      <point x="87" y="-6"/>
      <point x="237" y="-6" type="curve"/>
      <point x="302" y="-6"/>
      <point x="329" y="51"/>
      <point x="348" y="117" type="curve"/>
      <point x="341" y="121"/>
      <point x="336" y="123"/>
      <point x="329" y="127" type="curve"/>
      <point x="310" y="70"/>
      <point x="290" y="18"/>
      <point x="234" y="18" type="curve"/>
      <point x="116" y="18"/>
      <point x="139" y="171"/>
      <point x="131" y="314" type="curve"/>
      <point x="122" y="322"/>
      <point x="116" y="327"/>
    </contour>
    <component base="dvTopbar" xScale="0.54357627221" xOffset="37" yOffset="-60"/>
    <component base="dvTopbar" xScale="0.54357627221" xOffset="38" yOffset="-220"/>
  </outline>
</glyph>
<glyph name="bulletoperator" format="1">
  <advance width="244"/>
  <unicode hex="2219"/>
  <outline>
    <contour>
      <point x="157" y="440" type="curve"/>
      <point x="157" y="462"/>
      <point x="143" y="474"/>
      <point x="121" y="474" type="curve"/>
      <point x="99" y="474"/>
      <point x="87" y="460"/>
      <point x="87" y="440" type="curve"/>
      <point x="157" y="440"/>
      <point x="87" y="440"/>
      <point x="157" y="440" type="curve"/>
      <point x="157" y="418"/>
      <point x="143" y="406"/>
      <point x="121" y="406" type="curve"/>
      <point x="99" y="406"/>
      <point x="87" y="418"/>
      <point x="87" y="440" type="curve"/>
      <point x="157" y="440"/>
      <point x="87" y="440"/>
    </contour>
  </outline>
</glyph>
<glyph name="dvB_DA" format="1">
  <advance width="735"/>
  <outline>
    <contour>
      <point x="678" y="-89" type="move" name="blwm.virama"/>
    </contour>
    <contour>
      <point x="650" y="719" type="move" name="abvm.e"/>
    </contour>
    <contour>
      <point x="677" y="-148" type="move" name="blwm.u"/>
    </contour>
    <component base="dvDA_base" xOffset="329" yOffset="2"/>
    <component base="dvTopbar" xOffset="87"/>
    <component base="dvStroke_down" yScale="1.01931530762" xOffset="329" yOffset="-4"/>
    <component base="dvB"/>
  </outline>
</glyph>
<glyph name="dvCH_base" format="1">
  <advance width="500"/>
  <outline>
    <contour>
      <point x="507" y="263" type="curve"/>
      <point x="412" y="231"/>
      <point x="326" y="293"/>
      <point x="326" y="393" type="curve"/>
      <point x="326" y="469"/>
      <point x="348" y="538"/>
      <point x="415" y="538" type="curve"/>
      <point x="489" y="538"/>
      <point x="506" y="458"/>
      <point x="506" y="372" type="curve"/>
      <point x="506" y="201"/>
      <point x="435" y="57"/>
      <point x="283" y="57" type="curve"/>
      <point x="166" y="57"/>
      <point x="74" y="119"/>
      <point x="74" y="228" type="curve"/>
      <point x="74" y="315"/>
      <point x="135" y="377"/>
      <point x="227" y="377" type="curve"/>
      <point x="227" y="384"/>
      <point x="227" y="389"/>
      <point x="227" y="396" type="curve"/>
      <point x="123" y="396"/>
      <point x="51" y="327"/>
      <point x="51" y="229" type="curve"/>
      <point x="51" y="106"/>
      <point x="151" y="33"/>
      <point x="280" y="33" type="curve"/>
      <point x="447" y="33"/>
      <point x="530" y="187"/>
      <point x="530" y="373" type="curve"/>
      <point x="530" y="472"/>
      <point x="502" y="561"/>
      <point x="415" y="561" type="curve"/>
      <point x="335" y="561"/>
      <point x="303" y="483"/>
      <point x="303" y="393" type="curve"/>
      <point x="303" y="278"/>
      <point x="401" y="207"/>
      <point x="508" y="244" type="curve"/>
      <point x="508" y="251"/>
      <point x="507" y="256"/>
    </contour>
    <contour>
      <point x="213" y="716" type="curve"/>
      <point x="117" y="716"/>
      <point x="57" y="641"/>
      <point x="57" y="542" type="curve"/>
      <point x="57" y="447"/>
      <point x="126" y="380"/>
      <point x="227" y="380" type="curve"/>
      <point x="227" y="387"/>
      <point x="227" y="393"/>
      <point x="227" y="400" type="curve"/>
      <point x="140" y="400"/>
      <point x="82" y="458"/>
      <point x="81" y="540" type="curve"/>
      <point x="80" y="631"/>
      <point x="133" y="701"/>
      <point x="220" y="701" type="curve"/>
      <point x="218" y="706"/>
      <point x="215" y="711"/>
    </contour>
  </outline>
</glyph>
<glyph name="dvC_CHA" format="1">
  <advance width="892"/>
  <outline>
    <contour>
      <point x="666" y="-28" type="move" name="blwm.virama"/>
    </contour>
    <contour>
      <point x="740" y="720" type="move" name="abvm.e"/>
    </contour>
    <contour>
      <point x="694" y="-98" type="move" name="blwm.u"/>
    </contour>
    <component base="dvCHA" xOffset="312"/>
    <component base="dvC" xOffset="-13"/>
  </outline>
</glyph>
<glyph name="dvC_CH_VA" format="1">
  <advance width="892"/>
  <outline>
    <contour>
      <point x="727" y="-360" type="move" name="blwm.virama"/>
    </contour>
    <contour>
      <point x="735" y="718" type="move" name="abvm.e"/>
    </contour>
    <contour>
      <point x="727" y="-365" type="move" name="blwm.u"/>
    </contour>
    <component base="dvStroke_down" yScale="1.56117666506" xOffset="377" yOffset="-368"/>
    <component base="dvC_CHA"/>
    <component base="dvVA_open" xOffset="322" yOffset="-458"/>
  </outline>
</glyph>
<glyph name="dvDA_base" format="1">
  <advance width="500"/>
  <outline>
    <contour>
      <point x="322" y="532" type="curve"/>
      <point x="322" y="591"/>
      <point x="322" y="651"/>
      <point x="322" y="710" type="curve"/>
      <point x="298" y="710"/>
      <point x="322" y="710"/>
      <point x="298" y="710" type="curve"/>
      <point x="298" y="658"/>
      <point x="298" y="606"/>
      <point x="298" y="553" type="curve"/>
      <point x="322" y="532"/>
      <point x="298" y="553"/>
    </contour>
    <contour>
      <point x="331" y="297" type="line"/>
      <point x="331" y="207"/>
      <point x="287" y="136"/>
      <point x="216" y="136" type="curve"/>
      <point x="116" y="136"/>
      <point x="73" y="228"/>
      <point x="73" y="340" type="curve"/>
      <point x="73" y="455"/>
      <point x="147" y="532"/>
      <point x="261" y="532" type="curve"/>
      <point x="283" y="532"/>
      <point x="300" y="532"/>
      <point x="322" y="532" type="curve"/>
      <point x="313" y="540"/>
      <point x="307" y="545"/>
      <point x="298" y="553" type="curve"/>
      <point x="285" y="553"/>
      <point x="274" y="553"/>
      <point x="261" y="553" type="curve"/>
      <point x="133" y="553"/>
      <point x="49" y="467"/>
      <point x="49" y="338" type="curve"/>
      <point x="49" y="214"/>
      <point x="101" y="115"/>
      <point x="214" y="115" type="curve"/>
      <point x="306" y="115"/>
      <point x="352" y="193"/>
      <point x="352" y="293" type="curve"/>
    </contour>
  </outline>
</glyph>
<glyph name="dvDD_DDA" format="1">
  <advance width="443"/>
  <outline>
    <contour>
      <point x="274" y="-325" type="move" name="blwm.virama"/>
    </contour>
    <contour>
      <point x="296" y="716" type="move" name="abvm.e"/>
    </contour>
    <contour>
      <point x="300" y="-406" type="move" name="blwm.u"/>
    </contour>
    <component base="dvDD_low" xOffset="-26" yOffset="-71"/>
    <component base="dvTopbar" xScale="0.666044742493" xOffset="-2"/>
    <component base="dvDD_short" xOffset="4" yOffset="6"/>
    <component base="dvStem_short" yScale="0.715902123643" xOffset="-8" yOffset="213"/>
  </outline>
</glyph>
<glyph name="dvDD_DDHA" format="1">
  <advance width="400"/>
  <outline>
    <contour>
      <point x="257" y="-357" type="move" name="blwm.virama"/>
    </contour>
    <contour>
      <point x="292" y="720" type="move" name="abvm.e"/>
    </contour>
    <contour>
      <point x="304" y="-427" type="move" name="blwm.u"/>
    </contour>
    <component base="dvTopbar" xScale="0.622936882922" xOffset="-2"/>
    <component base="dvDD_short" xOffset="-9"/>
    <component base="dvDDHA_open" xOffset="-10" yOffset="-435"/>
    <component base="dvStem_short" yScale="0.721488891607" xOffset="-12" yOffset="204"/>
  </outline>
</glyph>
<glyph name="dvD_BA" format="1">
  <advance width="405"/>
  <outline>
    <contour>
      <point x="324" y="-182" type="move" name="blwm.virama"/>
    </contour>
    <contour>
      <point x="293" y="720" type="move" name="abvm.e"/>
    </contour>
    <contour>
      <point x="324" y="-187" type="move" name="blwm.u"/>
    </contour>
    <component base="dvDiagonal" xOffset="6" yOffset="-306"/>
    <component base="dvTopbar" xScale="0.629405080633" xOffset="-1"/>
    <component base="dvStroke_down" yScale="2.01279761032" xOffset="-27" yOffset="-202"/>
    <component base="dvVA_open" xOffset="-83" yOffset="-281"/>
    <component base="dvDA_short" xOffset="-26" yOffset="36"/>
  </outline>
</glyph>
<glyph name="dvD_GHA" format="1">
  <advance width="614"/>
  <outline>
    <contour>
      <point x="546" y="-8" type="move" name="blwm.virama"/>
    </contour>
    <contour>
      <point x="511" y="719" type="move" name="abvm.e"/>
    </contour>
    <contour>
      <point x="547" y="-1" type="move" name="blwm.u"/>
    </contour>
    <component base="dvTopbar" xScale="0.869750168722" xOffset="-1"/>
    <component base="dvDA" xOffset="192"/>
    <component base="dvDH_close" xOffset="-35" yOffset="-141"/>
  </outline>
</glyph>
<glyph name="dvJ_NA" format="1">
  <advance width="917"/>
  <outline>
    <contour>
      <point x="540" y="463" type="curve"/>
      <point x="425" y="463"/>
      <point x="306" y="463"/>
      <point x="190" y="463" type="curve"/>
      <point x="190" y="442"/>
      <point x="190" y="463"/>
      <point x="190" y="442" type="curve"/>
      <point x="307" y="442"/>
      <point x="425" y="442"/>
      <point x="540" y="442" type="curve"/>
      <point x="540" y="463"/>
      <point x="540" y="442"/>
    </contour>
    <contour>
      <point x="26" y="445" type="line"/>
      <point x="36" y="282"/>
      <point x="32" y="97"/>
      <point x="175" y="97" type="curve"/>
      <point x="264" y="97"/>
      <point x="314" y="186"/>
      <point x="314" y="283" type="curve"/>
      <point x="314" y="374"/>
      <point x="278" y="463"/>
      <point x="190" y="463" type="curve"/>
      <point x="190" y="456"/>
      <point x="190" y="448"/>
      <point x="190" y="441" type="curve"/>
      <point x="267" y="441"/>
      <point x="290" y="360"/>
      <point x="290" y="281" type="curve"/>
      <point x="290" y="197"/>
      <point x="247" y="118"/>
      <point x="176" y="118" type="curve"/>
      <point x="50" y="118"/>
      <point x="59" y="298"/>
      <point x="46" y="450" type="curve"/>
    </contour>
    <component base="dvTopbar" xOffset="-12"/>
    <component base="dvNA" xOffset="357"/>
  </outline>
</glyph>
<glyph name="dvJ_NY_YA" format="1">
  <advance width="932"/>
  <outline>
    <contour>
      <point x="-20" y="700" type="line"/>
      <point x="487" y="700" type="line"/>
      <point x="487" y="722" type="line"/>
      <point x="-20" y="722" type="line"/>
    </contour>
    <contour>
      <point x="195" y="415" type="line"/>
      <point x="469" y="415" type="line"/>
      <point x="469" y="437" type="line"/>
      <point x="195" y="437" type="line"/>
    </contour>
    <contour>
      <point x="70" y="-15" type="curve"/>
      <point x="70" y="87"/>
      <point x="70" y="193"/>
      <point x="70" y="296" type="curve"/>
      <point x="48" y="296"/>
      <point x="70" y="296"/>
      <point x="48" y="296" type="curve"/>
      <point x="48" y="193"/>
      <point x="48" y="87"/>
      <point x="48" y="-15" type="curve"/>
      <point x="70" y="-15"/>
      <point x="48" y="-15"/>
    </contour>
    <contour>
      <point x="195" y="415" type="line"/>
      <point x="283" y="406"/>
      <point x="314" y="341"/>
      <point x="314" y="260" type="curve"/>
      <point x="314" y="187"/>
      <point x="276" y="124"/>
      <point x="204" y="124" type="curve"/>
      <point x="117" y="124"/>
      <point x="70" y="200"/>
      <point x="70" y="298" type="curve"/>
      <point x="62" y="298"/>
      <point x="56" y="296"/>
      <point x="48" y="296" type="curve"/>
      <point x="48" y="186"/>
      <point x="100" y="101"/>
      <point x="202" y="101" type="curve"/>
      <point x="300" y="101"/>
      <point x="338" y="174"/>
      <point x="338" y="261" type="curve"/>
      <point x="338" y="354"/>
      <point x="299" y="429"/>
      <point x="200" y="435" type="curve"/>
    </contour>
    <component base="dvTopbar" xOffset="212"/>
    <component base="dvYA_base" xOffset="391" yOffset="30"/>
    <component base="dvStemright" xOffset="709"/>
  </outline>
</glyph>
<glyph name="dvJ_TTA" format="1">
  <advance width="829"/>
  <outline>
    <contour>
      <point x="673" y="11" type="move" name="blwm.virama"/>
    </contour>
    <contour>
      <point x="663" y="721" type="move" name="abvm.e"/>
    </contour>
    <contour>
      <point x="705" y="-75" type="move" name="blwm.u"/>
    </contour>
    <component base="dvTTA" xOffset="386"/>
    <component base="dvJ_base" xOffset="17" yOffset="-46"/>
    <component base="dvTopbar" xOffset="-12"/>
  </outline>
</glyph>
<glyph name="dvK_DA" format="1">
  <advance width="951"/>
  <outline>
    <contour>
      <point x="882" y="-46" type="move" name="blwm.virama"/>
    </contour>
    <contour>
      <point x="848" y="720" type="move" name="abvm.e"/>
    </contour>
    <contour>
      <point x="884" y="-106" type="move" name="blwm.u"/>
    </contour>
    <component base="dvDA" xOffset="529"/>
    <component base="dvK" xOffset="-18"/>
  </outline>
</glyph>
<glyph name="dvK_S_DDA" format="1">
  <advance width="1276"/>
  <outline>
    <contour>
      <point x="1155" y="-72" type="move" name="blwm.virama"/>
    </contour>
    <contour>
      <point x="1142" y="719" type="move" name="abvm.e"/>
    </contour>
    <contour>
      <point x="1174" y="-160" type="move" name="blwm.u"/>
    </contour>
    <component base="dvConnector" xScale="1.04539015966" xOffset="488" yOffset="23"/>
    <component base="dvDDA" xOffset="867"/>
    <component base="dvK" xOffset="-18"/>
    <component base="dvS" xOffset="513"/>
  </outline>
</glyph>
<glyph name="dvK_S_TTA" format="1">
  <advance width="1336"/>
  <outline>
    <contour>
      <point x="1171" y="-13" type="move" name="blwm.virama"/>
    </contour>
    <contour>
      <point x="1166" y="719" type="move" name="abvm.e"/>
    </contour>
    <contour>
      <point x="1203" y="-99" type="move" name="blwm.u"/>
    </contour>
    <component base="dvConnector" xScale="1.38489755583" xOffset="403" yOffset="4"/>
    <component base="dvTTA" xOffset="893"/>
    <component base="dvK" xOffset="-18"/>
    <component base="dvS" xOffset="513"/>
  </outline>
</glyph>
<glyph name="dvK_TTA" format="1">
  <advance width="963"/>
  <outline>
    <contour>
      <point x="843" y="-13" type="move" name="blwm.virama"/>
    </contour>
    <contour>
      <point x="794" y="722" type="move" name="abvm.e"/>
    </contour>
    <contour>
      <point x="898" y="-98" type="move" name="blwm.u"/>
    </contour>
    <component base="dvTTA" xOffset="520"/>
    <component base="dvK" xOffset="-18"/>
  </outline>
</glyph>
<glyph name="dvKx_RA" format="1">
  <advance width="683"/>
  <outline>
    <contour>
      <point x="342" y="-27" type="move" name="blwm.virama"/>
    </contour>
    <contour>
      <point x="342" y="721" type="move" name="abvm.e"/>
    </contour>
    <contour>
      <point x="342" y="-93" type="move" name="blwm.u"/>
    </contour>
    <component base="dvKA"/>
    <component base="dvAnusvara" xOffset="176" yOffset="-843"/>
    <component base="dvRaker" xOffset="18" yOffset="-37"/>
  </outline>
</glyph>
<glyph name="dvM_DA" format="1">
  <advance width="763"/>
  <outline>
    <contour>
      <point x="695" y="-47" type="move" name="blwm.virama"/>
    </contour>
    <contour>
      <point x="661" y="719" type="move" name="abvm.e"/>
    </contour>
    <contour>
      <point x="695" y="-128" type="move" name="blwm.u"/>
    </contour>
    <component base="dvM"/>
    <component base="dvDA" xOffset="341"/>
  </outline>
</glyph>
<glyph name="dvN_D_VA" format="1">
  <advance width="807"/>
  <outline>
    <contour>
      <point x="719" y="-228" type="move" name="blwm.virama"/>
    </contour>
    <contour>
      <point x="687" y="722" type="move" name="abvm.e"/>
    </contour>
    <contour>
      <point x="719" y="-205" type="move" name="blwm.u"/>
    </contour>
    <component base="dvD_VA" xOffset="375"/>
    <component base="dvN"/>
  </outline>
</glyph>
<glyph name="dvN_TTA" format="1">
  <advance width="802"/>
  <outline>
    <contour>
      <point x="690" y="-13" type="move" name="blwm.virama"/>
    </contour>
    <contour>
      <point x="634" y="720" type="move" name="abvm.e"/>
    </contour>
    <contour>
      <point x="722" y="-99" type="move" name="blwm.u"/>
    </contour>
    <component base="dvTTA" xOffset="359"/>
    <component base="dvNA_base" xOffset="-1" yOffset="-52"/>
    <component base="dvTopbar" xScale="0.762735525228" xOffset="-14"/>
  </outline>
</glyph>
<glyph name="dvPH_LA" format="1">
  <advance width="1132"/>
  <outline>
    <contour>
      <point x="975" y="11" type="move" name="blwm.virama"/>
    </contour>
    <contour>
      <point x="927" y="721" type="move" name="abvm.e"/>
    </contour>
    <contour>
      <point x="964" y="-62" type="move" name="blwm.u"/>
    </contour>
    <component base="dvLA" xOffset="487"/>
    <component base="dvPH" xOffset="-12"/>
  </outline>
</glyph>
<glyph name="dvP_base" format="1">
  <advance width="500"/>
  <outline>
    <contour>
      <point x="359" y="369" type="curve"/>
      <point x="333" y="284"/>
      <point x="304" y="210"/>
      <point x="221" y="210" type="curve"/>
      <point x="132" y="210"/>
      <point x="113" y="301"/>
      <point x="113" y="404" type="curve"/>
      <point x="113" y="515"/>
      <point x="113" y="598"/>
      <point x="113" y="709" type="curve"/>
      <point x="104" y="709"/>
      <point x="98" y="709"/>
      <point x="89" y="709" type="curve"/>
      <point x="89" y="599"/>
      <point x="89" y="517"/>
      <point x="89" y="407" type="curve"/>
      <point x="89" y="289"/>
      <point x="117" y="187"/>
      <point x="220" y="187" type="curve"/>
      <point x="313" y="187"/>
      <point x="350" y="266"/>
      <point x="376" y="361" type="curve"/>
      <point x="370" y="364"/>
      <point x="365" y="366"/>
    </contour>
  </outline>
</glyph>
<glyph name="dvRA_mUU" format="1">
  <advance width="499"/>
  <outline>
    <contour>
      <point x="478" y="245" type="line"/>
      <point x="478" y="381"/>
      <point x="399" y="477"/>
      <point x="265" y="477" type="curve"/>
      <point x="237" y="477"/>
      <point x="215" y="477"/>
      <point x="187" y="477" type="curve"/>
      <point x="187" y="469"/>
      <point x="187" y="463"/>
      <point x="187" y="455" type="curve"/>
      <point x="215" y="455"/>
      <point x="236" y="455"/>
      <point x="264" y="455" type="curve"/>
      <point x="384" y="455"/>
      <point x="453" y="367"/>
      <point x="453" y="245" type="curve"/>
    </contour>
    <component base="dvTopbar" xScale="0.821352554405" xOffset="-18"/>
    <component base="dvRA_base"/>
  </outline>
</glyph>
<glyph name="dvSH_KA" format="1">
  <advance width="1090"/>
  <outline>
    <contour>
      <point x="754" y="-9" type="move" name="blwm.virama"/>
    </contour>
    <contour>
      <point x="744" y="721" type="move" name="abvm.e"/>
    </contour>
    <contour>
      <point x="771" y="-95" type="move" name="blwm.u"/>
    </contour>
    <component base="dvKA" xOffset="407"/>
    <component base="dvSH"/>
  </outline>
</glyph>
<glyph name="dvS_K_VA" format="1">
  <advance width="1310"/>
  <outline>
    <contour>
      <point x="426" y="453" type="line"/>
      <point x="392" y="419"/>
      <point x="353" y="407"/>
      <point x="305" y="407" type="curve" smooth="yes"/>
      <point x="260" y="407"/>
      <point x="224" y="425"/>
      <point x="186" y="449" type="curve"/>
      <point x="174" y="432" type="line"/>
      <point x="214" y="406"/>
      <point x="256" y="387"/>
      <point x="304" y="387" type="curve" smooth="yes"/>
      <point x="360" y="387"/>
      <point x="408" y="400"/>
      <point x="442" y="444" type="curve"/>
    </contour>
    <component base="dvK_VA" xOffset="325"/>
    <component base="dvS" xOffset="-12"/>
  </outline>
</glyph>
<glyph name="dvS_SA" format="1">
  <advance width="901"/>
  <outline>
    <contour>
      <point x="367" y="407" type="line"/>
      <point x="340" y="370"/>
      <point x="303" y="355"/>
      <point x="257" y="355" type="curve" smooth="yes"/>
      <point x="210" y="355"/>
      <point x="176" y="377"/>
      <point x="141" y="409" type="curve"/>
      <point x="129" y="392" type="line"/>
      <point x="167" y="357"/>
      <point x="205" y="335"/>
      <point x="256" y="335" type="curve" smooth="yes"/>
      <point x="310" y="335"/>
      <point x="355" y="352"/>
      <point x="383" y="398" type="curve"/>
    </contour>
    <component base="dvSA" xOffset="291"/>
    <component base="dvS" xOffset="-12"/>
  </outline>
</glyph>
<glyph name="dvS_THA" format="1">
  <advance width="883"/>
  <outline>
    <contour>
      <point x="446" y="411" type="line"/>
      <point x="409" y="361"/>
      <point x="357" y="345"/>
      <point x="294" y="345" type="curve" smooth="yes"/>
      <point x="233" y="345"/>
      <point x="187" y="368"/>
      <point x="141" y="409" type="curve"/>
      <point x="129" y="392" type="line"/>
      <point x="177" y="348"/>
      <point x="227" y="325"/>
      <point x="293" y="325" type="curve" smooth="yes"/>
      <point x="364" y="325"/>
      <point x="425" y="342"/>
      <point x="462" y="402" type="curve"/>
    </contour>
    <component base="dvTopbar" xScale="0.792737427536" xOffset="-2"/>
    <component base="dvS" xOffset="-12"/>
    <component base="dvTHA" xOffset="363"/>
  </outline>
</glyph>
<glyph name="dvStem" format="1">
  <advance width="257"/>
  <outline>
    <contour>
      <point x="132" y="0" type="curve"/>
      <point x="171" y="0"/>
      <point x="190" y="0"/>
      <point x="230" y="0" type="curve"/>
      <point x="230" y="22"/>
      <point x="230" y="0"/>
      <point x="230" y="22" type="curve"/>
      <point x="112" y="22"/>
      <point x="250" y="22"/>
      <point x="132" y="22" type="curve"/>
      <point x="132" y="0"/>
      <point x="132" y="22"/>
    </contour>
    <contour>
      <point x="132" y="22" type="curve"/>
      <point x="7" y="22"/>
      <point x="152" y="22"/>
      <point x="27" y="22" type="curve"/>
      <point x="27" y="0"/>
      <point x="27" y="22"/>
      <point x="27" y="0" type="curve"/>
      <point x="68" y="0"/>
      <point x="90" y="0"/>
      <point x="132" y="0" type="curve"/>
      <point x="132" y="22"/>
      <point x="132" y="0"/>
    </contour>
    <contour>
      <point x="143" y="0" type="curve"/>
      <point x="143" y="241"/>
      <point x="143" y="481"/>
      <point x="143" y="722" type="curve"/>
      <point x="119" y="722"/>
      <point x="143" y="722"/>
      <point x="119" y="722" type="curve"/>
      <point x="119" y="481"/>
      <point x="119" y="241"/>
      <point x="119" y="0" type="curve"/>
      <point x="143" y="0"/>
      <point x="119" y="0"/>
    </contour>
    <contour>
      <point x="123" y="700" type="curve"/>
      <point x="178" y="700"/>
      <point x="222" y="700"/>
      <point x="277" y="700" type="curve"/>
      <point x="277" y="722"/>
      <point x="277" y="700"/>
      <point x="277" y="722" type="curve"/>
      <point x="222" y="722"/>
      <point x="178" y="722"/>
      <point x="123" y="722" type="curve"/>
      <point x="123" y="700"/>
      <point x="123" y="722"/>
    </contour>
  </outline>
</glyph>
<glyph name="dvTT_TTHA" format="1">
  <advance width="463"/>
  <outline>
    <contour>
      <point x="342" y="-233" type="move" name="blwm.virama"/>
    </contour>
    <contour>
      <point x="294" y="718" type="move" name="abvm.e"/>
    </contour>
    <contour>
      <point x="392" y="-307" type="move" name="blwm.u"/>
    </contour>
    <component base="dvTopbar" xScale="0.733780271643" xOffset="-14"/>
    <component base="dvTTA_short" xOffset="-278"/>
    <component base="dvTTH_short" yOffset="-365"/>
  </outline>
</glyph>
<glyph name="dvT_KA" format="1">
  <advance width="947"/>
  <outline>
    <contour>
      <point x="605" y="0" type="move" name="blwm.virama"/>
    </contour>
    <contour>
      <point x="603" y="722" type="move" name="abvm.e"/>
    </contour>
    <contour>
      <point x="605" y="0" type="move" name="blwm.u"/>
    </contour>
    <component base="dvT" xOffset="-10"/>
    <component base="dvKA" xOffset="264"/>
  </outline>
</glyph>
<glyph name="dvT_K_RA" format="1">
  <advance width="947"/>
  <outline>
    <contour>
      <point x="605" y="-38" type="move" name="blwm.virama"/>
    </contour>
    <contour>
      <point x="603" y="720" type="move" name="abvm.e"/>
    </contour>
    <contour>
      <point x="606" y="-89" type="move" name="blwm.u"/>
    </contour>
    <component base="dvRaker" xOffset="279" yOffset="-38"/>
    <component base="dvT_KA"/>
  </outline>
</glyph>
<glyph name="dvTopbar" format="1">
  <advance width="500"/>
  <outline>
    <contour>
      <point x="-8" y="700" type="line"/>
      <point x="677" y="700" type="line"/>
      <point x="677" y="722" type="line"/>
      <point x="-8" y="722" type="line"/>
    </contour>
  </outline>
</glyph>
<glyph name="dvV" format="1">
  <advance width="273"/>
  <outline>
    <contour>
      <point x="364" y="344" type="curve"/>
      <point x="364" y="227"/>
      <point x="324" y="132"/>
      <point x="219" y="132" type="curve"/>
      <point x="113" y="132"/>
      <point x="71" y="227"/>
      <point x="71" y="345" type="curve"/>
      <point x="71" y="458"/>
      <point x="112" y="548"/>
      <point x="214" y="548" type="curve"/>
      <point x="318" y="548"/>
      <point x="364" y="459"/>
      <point x="364" y="344" type="curve"/>
      <point x="373" y="344"/>
      <point x="379" y="344"/>
      <point x="388" y="344" type="curve"/>
      <point x="388" y="472"/>
      <point x="332" y="569"/>
      <point x="215" y="569" type="curve"/>
      <point x="100" y="569"/>
      <point x="47" y="471"/>
      <point x="47" y="345" type="curve"/>
      <point x="47" y="213"/>
      <point x="98" y="110"/>
      <point x="217" y="110" type="curve"/>
      <point x="336" y="110"/>
      <point x="388" y="213"/>
      <point x="388" y="344" type="curve"/>
      <point x="379" y="344"/>
      <point x="373" y="344"/>
    </contour>
    <component base="dvTopbar" xScale="0.595465891489" xOffset="-3"/>
  </outline>
</glyph>
<glyph name="dvV_LA" format="1">
  <advance width="906"/>
  <outline>
    <contour>
      <point x="728" y="17" type="move" name="blwm.virama"/>
    </contour>
    <contour>
      <point x="704" y="721" type="move" name="abvm.e"/>
    </contour>
    <contour>
      <point x="717" y="-56" type="move" name="blwm.u"/>
    </contour>
    <component base="dvV" xOffset="-12"/>
    <component base="dvLA" xOffset="261"/>
  </outline>
</glyph>
<glyph name="dvmE_Reph_Anusvara" format="1">
  <advance width="0"/>
  <outline>
    <contour>
      <point x="-90" y="724" type="move" name="_abvm.e"/>
    </contour>
    <component base="dvmE" xOffset="-14" yOffset="-17"/>
    <component base="dvReph_Anusvara" xOffset="-18" yOffset="-13"/>
  </outline>
</glyph>
<glyph name="dvmI.a08" format="1">
  <advance width="265"/>
  <outline>
    <contour>
      <point x="1140" y="707" type="move" name="abvm.i"/>
    </contour>
    <contour>
      <point x="142" y="716" type="curve"/>
      <point x="127" y="746"/>
      <point x="117" y="785"/>
      <point x="117" y="826" type="curve"/>
      <point x="117" y="927"/>
      <point x="243" y="979"/>
      <point x="399" y="979" type="curve"/>
      <point x="762" y="979"/>
      <point x="983" y="840"/>
      <point x="1127" y="702" type="curve"/>
      <point x="1133" y="706"/>
      <point x="1138" y="709"/>
      <point x="1144" y="713" type="curve"/>
      <point x="998" y="858"/>
      <point x="770" y="1000"/>
      <point x="401" y="1000" type="curve"/>
      <point x="232" y="1000"/>
      <point x="95" y="943"/>
      <point x="95" y="827" type="curve"/>
      <point x="95" y="782"/>
      <point x="105" y="746"/>
      <point x="121" y="705" type="curve"/>
      <point x="128" y="709"/>
      <point x="135" y="712"/>
    </contour>
    <component base="dvmAA"/>
  </outline>
</glyph>
<glyph name="dvmI.a10" format="1">
  <advance width="265"/>
  <outline>
    <contour>
      <point x="1230" y="707" type="move" name="abvm.i"/>
    </contour>
    <contour>
      <point x="142" y="716" type="curve"/>
      <point x="127" y="746"/>
      <point x="117" y="785"/>
      <point x="117" y="826" type="curve"/>
      <point x="117" y="927"/>
      <point x="263" y="979"/>
      <point x="443" y="979" type="curve"/>
      <point x="830" y="979"/>
      <point x="1069" y="834"/>
      <point x="1218" y="702" type="curve"/>
      <point x="1224" y="706"/>
      <point x="1229" y="709"/>
      <point x="1235" y="713" type="curve"/>
      <point x="1085" y="851"/>
      <point x="838" y="1000"/>
      <point x="445" y="1000" type="curve"/>
      <point x="252" y="1000"/>
      <point x="95" y="943"/>
      <point x="95" y="827" type="curve"/>
      <point x="95" y="782"/>
      <point x="105" y="746"/>
      <point x="121" y="705" type="curve"/>
      <point x="128" y="709"/>
      <point x="135" y="712"/>
    </contour>
    <component base="dvmAA"/>
  </outline>
</glyph>
<glyph name="dvmI.a21" format="1">
  <advance width="265"/>
  <outline>
    <contour>
      <point x="1790" y="707" type="move" name="abvm.i"/>
    </contour>
    <contour>
      <point x="142" y="716" type="curve"/>
      <point x="127" y="746"/>
      <point x="117" y="785"/>
      <point x="117" y="826" type="curve"/>
      <point x="117" y="927"/>
      <point x="282" y="979"/>
      <point x="485" y="979" type="curve"/>
      <point x="1127" y="979"/>
      <point x="1515" y="840"/>
      <point x="1772" y="702" type="curve"/>
      <point x="1778" y="706"/>
      <point x="1783" y="709"/>
      <point x="1789" y="713" type="curve"/>
      <point x="1534" y="855"/>
      <point x="1135" y="1000"/>
      <point x="487" y="1000" type="curve"/>
      <point x="271" y="1000"/>
      <point x="95" y="943"/>
      <point x="95" y="827" type="curve"/>
      <point x="95" y="782"/>
      <point x="105" y="746"/>
      <point x="121" y="705" type="curve"/>
      <point x="128" y="709"/>
      <point x="135" y="712"/>
    </contour>
    <component base="dvmAA"/>
  </outline>
</glyph>
<glyph name="dvmI.a22" format="1">
  <advance width="265"/>
  <outline>
    <contour>
      <point x="1840" y="707" type="move" name="abvm.i"/>
    </contour>
    <contour>
      <point x="142" y="716" type="curve"/>
      <point x="127" y="746"/>
      <point x="117" y="785"/>
      <point x="117" y="826" type="curve"/>
      <point x="117" y="927"/>
      <point x="282" y="979"/>
      <point x="485" y="979" type="curve"/>
      <point x="1151" y="979"/>
      <point x="1556" y="844"/>
      <point x="1821" y="702" type="curve"/>
      <point x="1827" y="706"/>
      <point x="1832" y="709"/>
      <point x="1838" y="713" type="curve"/>
      <point x="1576" y="859"/>
      <point x="1159" y="1000"/>
      <point x="487" y="1000" type="curve"/>
      <point x="271" y="1000"/>
      <point x="95" y="943"/>
      <point x="95" y="827" type="curve"/>
      <point x="95" y="782"/>
      <point x="105" y="746"/>
      <point x="121" y="705" type="curve"/>
      <point x="128" y="709"/>
      <point x="135" y="712"/>
    </contour>
    <component base="dvmAA"/>
  </outline>
</glyph>
<glyph name="dvmI.a24" format="1">
  <advance width="265"/>
  <outline>
    <contour>
      <point x="1930" y="707" type="move" name="abvm.i"/>
    </contour>
    <contour>
      <point x="142" y="716" type="curve"/>
      <point x="127" y="746"/>
      <point x="117" y="785"/>
      <point x="117" y="826" type="curve"/>
      <point x="117" y="927"/>
      <point x="282" y="979"/>
      <point x="485" y="979" type="curve"/>
      <point x="1197" y="979"/>
      <point x="1633" y="852"/>
      <point x="1912" y="702" type="curve"/>
      <point x="1918" y="706"/>
      <point x="1923" y="709"/>
      <point x="1929" y="713" type="curve"/>
      <point x="1653" y="867"/>
      <point x="1205" y="1000"/>
      <point x="487" y="1000" type="curve"/>
      <point x="271" y="1000"/>
      <point x="95" y="943"/>
      <point x="95" y="827" type="curve"/>
      <point x="95" y="782"/>
      <point x="105" y="746"/>
      <point x="121" y="705" type="curve"/>
      <point x="128" y="709"/>
      <point x="135" y="712"/>
    </contour>
    <component base="dvmAA"/>
  </outline>
</glyph>
